<svg width="17" height="17" viewBox="0 0 17 17" fill="none" xmlns="http://www.w3.org/2000/svg">
<path d="M4.75 8.25C4.47386 8.25 4.25 8.47386 4.25 8.75C4.25 9.02614 4.47386 9.25 4.75 9.25V8.25ZM12.25 9.25C12.5261 9.25 12.75 9.02614 12.75 8.75C12.75 8.47386 12.5261 8.25 12.25 8.25V9.25ZM9 5C9 4.72386 8.77614 4.5 8.5 4.5C8.22386 4.5 8 4.72386 8 5H9ZM8 12.5C8 12.7761 8.22386 13 8.5 13C8.77614 13 9 12.7761 9 12.5H8ZM4.75 9.25H12.25V8.25H4.75V9.25ZM8 5V12.5H9V5H8ZM15.5 8.5C15.5 12.366 12.366 15.5 8.5 15.5V16.5C12.9183 16.5 16.5 12.9183 16.5 8.5H15.5ZM8.5 15.5C4.63401 15.5 1.5 12.366 1.5 8.5H0.5C0.5 12.9183 4.08172 16.5 8.5 16.5V15.5ZM1.5 8.5C1.5 4.63401 4.63401 1.5 8.5 1.5V0.5C4.08172 0.5 0.5 4.08172 0.5 8.5H1.5ZM8.5 1.5C12.366 1.5 15.5 4.63401 15.5 8.5H16.5C16.5 4.08172 12.9183 0.5 8.5 0.5V1.5Z" fill="#00151E"/>
</svg>
