
<svg width="15px" height="15px" viewBox="0 0 96 94" version="1.1" xmlns="http://www.w3.org/2000/svg" xmlns:xlink="http://www.w3.org/1999/xlink">
    <g stroke="none" stroke-width="1" fill="none" fill-rule="evenodd">
        <g  id="noun_1279642_cc" fill-rule="nonzero">
            <path fill="#000000" d="M84.43,32.07 C83.198405,30.570547 80.9844531,30.3534051 79.4850001,31.5850001 C77.985547,32.8165951 77.7684051,35.0305469 79,36.53 L84.77,43.53 L51.5,43.53 L51.5,11.14 L58.5,16.91 C59.4569933,17.7581315 60.800348,18.0168535 62.0038917,17.5848282 C63.2074354,17.1528029 64.0795748,16.0988048 64.2787055,14.8356697 C64.4778363,13.5725347 63.9722586,12.3013422 62.96,11.52 L50.23,1 C48.9358086,-0.0698532622 47.0641914,-0.0698532622 45.77,1 L33.07,11.51 C32.0577414,12.2913422 31.5521637,13.5625347 31.7512945,14.8256697 C31.9504252,16.0888048 32.8225646,17.1428029 34.0261083,17.5748282 C35.229652,18.0068535 36.5730067,17.7481315 37.53,16.9 L44.53,11.13 L44.53,43.5 L11.19,43.5 L16.96,36.5 C18.1128974,35.0063774 17.8743343,32.8677179 16.4206493,31.6648543 C14.9669643,30.4619906 12.8214474,30.6279234 11.57,32.04 L1.06,44.77 C-0.00985326218,46.0641914 -0.00985326218,47.9358086 1.06,49.23 L11.57,61.93 C12.801595,63.4294531 15.0155469,63.646595 16.515,62.415 C18.0144531,61.183405 18.231595,58.9694531 17,57.47 L11.23,50.47 L44.5,50.47 L44.5,82.86 L37.5,77.09 C36.5430067,76.2418685 35.199652,75.9831465 33.9961083,76.4151718 C32.7925646,76.8471971 31.9204252,77.9011952 31.7212945,79.1643303 C31.5221637,80.4274653 32.0277414,81.6986578 33.04,82.48 L45.77,93 C47.0641914,94.0698533 48.9358086,94.0698533 50.23,93 L62.93,82.49 C63.9422586,81.7086578 64.4478363,80.4374653 64.2487055,79.1743303 C64.0495748,77.9111952 63.1774354,76.8571971 61.9738917,76.4251718 C60.770348,75.9931465 59.4269933,76.2518685 58.47,77.1 L51.47,82.87 L51.47,50.5 L84.81,50.5 L79.04,57.5 C77.8871026,58.9936226 78.1256657,61.1322821 79.5793507,62.3351457 C81.0330357,63.5380094 83.1785526,63.3720766 84.43,61.96 L94.94,49.26 C96.0098533,47.9658086 96.0098533,46.0941914 94.94,44.8 L84.43,32.07 Z" id="ShapeCNTRL"></path>
        </g>
    </g>
</svg>
