<svg width="14" height="14" viewBox="0 0 14 14" fill="none" xmlns="http://www.w3.org/2000/svg">
<rect width="14" height="14.0003" fill="black" fill-opacity="0" transform="translate(14 14.0005) rotate(-180)"/>
<path d="M1.59538 14.0005H9.01418C9.43731 14.0005 9.84312 13.8324 10.1423 13.5332C10.4415 13.234 10.6096 12.8282 10.6096 12.405V4.98624C10.6096 4.56311 10.4415 4.1573 10.1423 3.8581C9.84312 3.55889 9.43731 3.3908 9.01418 3.3908H1.59538C1.17224 3.3908 0.766431 3.55889 0.467228 3.8581C0.168024 4.1573 -6.67572e-05 4.56311 -6.67572e-05 4.98624V12.405C-6.67572e-05 12.8282 0.168024 13.234 0.467228 13.5332C0.766431 13.8324 1.17224 14.0005 1.59538 14.0005ZM1.59538 4.98624H9.01418V12.405H1.59538V4.98624Z" fill="#A7A7A7"/>
<path d="M12.4046 0.000177383H4.98576C4.56262 0.000177383 4.15681 0.168268 3.85761 0.467472C3.5584 0.766675 3.39031 1.17248 3.39031 1.59562V2.07425C3.39031 2.28582 3.47436 2.48872 3.62396 2.63832C3.77356 2.78793 3.97647 2.87197 4.18804 2.87197C4.3996 2.87197 4.60251 2.78793 4.75211 2.63832C4.90171 2.48872 4.98576 2.28582 4.98576 2.07425V1.59562H12.4046V9.01442H11.9658C11.7542 9.01442 11.5513 9.09847 11.4017 9.24807C11.2521 9.39767 11.1681 9.60057 11.1681 9.81214C11.1681 10.0237 11.2521 10.2266 11.4017 10.3762C11.5513 10.5258 11.7542 10.6099 11.9658 10.6099H12.4046C12.8277 10.6099 13.2335 10.4418 13.5327 10.1426C13.8319 9.84337 14 9.43756 14 9.01442V1.59562C14 1.17248 13.8319 0.766675 13.5327 0.467472C13.2335 0.168268 12.8277 0.000177383 12.4046 0.000177383Z" fill="#A7A7A7"/>
</svg>
