<svg width="21" height="21" viewBox="0 0 21 21" fill="none" xmlns="http://www.w3.org/2000/svg">
<g clip-path="url(#clip0)">
<path d="M6.63843 8.33928L8.33928 6.63843L5.11766 3.41681H7.65893V0.995605H0.995605V7.65893H3.41681V5.11766L6.63843 8.33928Z" fill="#009887"/>
<path d="M5.11766 17.5841L8.33928 14.3625L6.63843 12.6616L3.41681 15.8832V13.342H0.995605V20.0053H7.65893V17.5841H5.11766Z" fill="#009887"/>
<path d="M15.8832 3.41681L12.6616 6.63843L14.3625 8.33928L17.5841 5.11766V7.65893H20.0053V0.995605H13.342V3.41681H15.8832Z" fill="#009887"/>
<path d="M20.0053 13.342H17.5841V15.8832L14.3625 12.6616L12.6616 14.3625L15.8832 17.5841H13.342V20.0053H20.0053V13.342Z" fill="#009887"/>
</g>
<defs>
<clipPath id="clip0">
<rect width="29" height="29" fill="white" transform="translate(0.495117 0.495117) scale(0.69)"/>
</clipPath>
</defs>
</svg>
