<svg width="20" height="20" viewBox="0 0 26 26" fill="none" xmlns="http://www.w3.org/2000/svg">
<g clip-path="url(#clip0)">
<path d="M24.4165 11.7501H14.9165V2.25008L18.0832 5.41675L22.8332 0.666748L25.9998 3.83341L21.2498 8.59291L24.4165 11.7501ZM3.83317 0.666748L0.666504 3.83341L5.4165 8.58341L2.24984 11.7501H11.7498V2.25008L8.59109 5.41675L3.83317 0.666748ZM5.4165 18.0771L0.666504 22.8334L3.83317 26.0001L8.58317 21.2501L11.7498 24.4167V14.9167H2.24984L5.4165 18.0771ZM24.4165 14.9167H14.9165V24.4167L18.0753 21.2501L22.8332 26.0001L25.9998 22.8334L21.2498 18.0834L24.4165 14.9167Z" fill="#009887"/>
</g>
<defs>
<clipPath id="clip0">
<rect width="36.715" height="36.715" fill="white" transform="translate(0.666504 0.666748) scale(0.69)"/>
</clipPath>
</defs>
</svg>
