<svg width="81" height="33" viewBox="0 0 81 33" fill="none" xmlns="http://www.w3.org/2000/svg">
<path d="M0.5 5.5H79C79.8284 5.5 80.5 6.17157 80.5 7V31C80.5 31.8284 79.8284 32.5 79 32.5H2C1.17157 32.5 0.5 31.8284 0.5 31V5.5Z" stroke="#F7F7F7"/>
<path d="M0.5 5.5H10.5V0.5H2C1.17157 0.5 0.5 1.17157 0.5 2V5.5Z" stroke="#F7F7F7"/>
<path d="M10.5 5.5H20.5V0.5H10.5V5.5Z" stroke="#F7F7F7"/>
<path d="M20.5 5.5H30.5V0.5H20.5V5.5Z" stroke="#F7F7F7"/>
<path d="M30.5 5.5H40.5V2C40.5 1.17157 39.8284 0.5 39 0.5H30.5V5.5Z" stroke="#F7F7F7"/>
</svg>
