<svg width="6" height="6" viewBox="0 0 6 6" fill="none" xmlns="http://www.w3.org/2000/svg">
<g clip-path="url(#clip0)">
<path d="M2.19879 0H5.76962C5.88481 0 6 0.0759494 6 0.189873V5.81013C6 5.92405 5.88481 6 5.76962 6H0.88565C0.747424 6 0.655273 5.92405 0.655273 5.81013V1.27215C0.655273 1.21519 0.678311 1.15823 0.724386 1.13924L2.03753 0.056962C2.06057 0.0189873 2.12968 0 2.19879 0ZM2.42917 0.379747V1.42405C2.42917 1.51899 2.31398 1.61392 2.19879 1.61392H1.11603V5.62025H5.53925V0.379747H2.42917ZM1.25425 1.23418H1.96842V0.64557L1.25425 1.23418Z" fill="black"/>
<path d="M2.03712 2.3734C1.73763 2.3734 1.73763 1.99365 2.03712 1.99365H3.67279C3.97228 1.99365 3.97228 2.3734 3.67279 2.3734H2.03712Z" fill="black"/>
<path d="M2.03712 3.17088C1.73763 3.17088 1.73763 2.79114 2.03712 2.79114H4.61733C4.91682 2.79114 4.91682 3.17088 4.61733 3.17088H2.03712Z" fill="black"/>
<path d="M2.03712 3.96837C1.73763 3.96837 1.73763 3.58862 2.03712 3.58862H4.61733C4.91682 3.58862 4.91682 3.96837 4.61733 3.96837H2.03712Z" fill="black"/>
<path d="M2.03712 4.78478C1.73763 4.78478 1.73763 4.40503 2.03712 4.40503H4.61733C4.91682 4.40503 4.91682 4.78478 4.61733 4.78478H2.03712Z" fill="black"/>
</g>
<defs>
<clipPath id="clip0">
<rect width="7.74598" height="8.69565" fill="white" transform="translate(0.655273) scale(0.69)"/>
</clipPath>
</defs>
</svg>
