<svg width="789" height="730" viewBox="0 0 789 730" fill="none" xmlns="http://www.w3.org/2000/svg">
<path id="sq1" fill-rule="evenodd" clip-rule="evenodd" d="M431 384C419.954 384 411 392.954 411 404V710C411 721.046 419.954 730 431 730H769C780.046 730 789 721.046 789 710V404C789 392.954 780.046 384 769 384H431ZM506 436.744C494.954 436.744 486 445.698 486 456.744V656.201C486 667.247 494.954 676.201 506 676.201H693C704.046 676.201 713 667.247 713 656.201V456.744C713 445.698 704.046 436.744 693 436.744H506Z" fill="#009887"/>
  <path id="sq2" fill-rule="evenodd" clip-rule="evenodd" d="M431 384C419.954 384 411 392.954 411 404V710C411 721.046 419.954 730 431 730H769C780.046 730 789 721.046 789 710V404C789 392.954 780.046 384 769 384H431ZM506 436.744C494.954 436.744 486 445.698 486 456.744V656.201C486 667.247 494.954 676.201 506 676.201H693C704.046 676.201 713 667.247 713 656.201V456.744C713 445.698 704.046 436.744 693 436.744H506Z" fill="#009887"/>
  <rect id="reg" width="378" height="352" rx="20" fill="#009887"/>
<!--   <path id="sq3" fill-rule="evenodd" clip-rule="evenodd" d="M431 384C419.954 384 411 392.954 411 404V710C411 721.046 419.954 730 431 730H769C780.046 730 789 721.046 789 710V404C789 392.954 780.046 384 769 384H431ZM506 436.744C494.954 436.744 486 445.698 486 456.744V656.201C486 667.247 494.954 676.201 506 676.201H693C704.046 676.201 713 667.247 713 656.201V456.744C713 445.698 704.046 436.744 693 436.744H506Z" fill="#009887"/> -->
<!-- <path id="sq2" fill-rule="evenodd" clip-rule="evenodd" d="M431 0C419.954 0 411 8.9543 411 20V326C411 337.046 419.954 346 431 346H769C780.046 346 789 337.046 789 326V20C789 8.9543 780.046 0 769 0H431ZM506 52.7438C494.954 52.7438 486 61.6981 486 72.7438V272.201C486 283.247 494.954 292.201 506 292.201H693C704.046 292.201 713 283.247 713 272.201V72.7438C713 61.6981 704.046 52.7438 693 52.7438H506Z" fill="#009887"/> -->
<!-- <path id="sq3" fill-rule="evenodd" clip-rule="evenodd" d="M20 0C8.9543 0 0 8.95432 0 20V710C0 721.046 8.9543 730 20 730H358C369.046 730 378 721.046 378 710V20C378 8.95431 369.046 0 358 0H20ZM95 111.28C83.9543 111.28 75 120.235 75 131.28V596.494C75 607.54 83.9543 616.494 95 616.494H282C293.046 616.494 302 607.54 302 596.494V131.28C302 120.235 293.046 111.28 282 111.28H95Z" fill="#009887"/>  -->
</svg>