<svg width="30" height="30" viewBox="0 0 44 44" fill="none" xmlns="http://www.w3.org/2000/svg">
<g id="Shape" clip-path="url(#clip0)">
<path id="Shape" d="M23.055 6.08997C15.3161 6.08997 8.86084 11.7481 7.61247 19.14H4.78497L9.13497 24.36L13.485 19.14H11.1604C12.3506 13.657 17.2054 9.56997 23.055 9.56997C29.8024 9.56997 35.235 15.0026 35.235 21.75C35.235 28.4973 29.8024 33.93 23.055 33.93C18.6161 33.93 14.7434 31.5873 12.615 28.0575L9.76029 30.015C12.5295 34.4521 17.4558 37.41 23.055 37.41C31.6831 37.41 38.715 30.3781 38.715 21.75C38.715 13.1218 31.6831 6.08997 23.055 6.08997ZM21.315 14.79V21.75V22.5792L21.9675 23.1093L26.3175 26.5893L27.6768 27.6768L29.8519 24.9581L28.4925 23.8706L24.795 20.9072V14.79" fill="#00151E"/>
</g>
<defs>
<clipPath id="clip0">
<rect width="63.0435" height="63.0435" fill="#00151E" transform="scale(0.69)"/>
</clipPath>
</defs>
</svg>
