<svg width="239" height="86" viewBox="0 0 239 86" fill="none" xmlns="http://www.w3.org/2000/svg">
<path d="M94.9658 3.04688V9.81445C94.9613 10.7533 94.665 11.5212 94.0771 12.1182C93.4938 12.7152 92.7008 13.0501 91.6982 13.123L91.3496 13.1367C90.2604 13.1367 89.3923 12.8428 88.7451 12.2549C88.098 11.667 87.7699 10.8581 87.7607 9.82812V3.04688H89.0596V9.78711C89.0596 10.5072 89.2578 11.0677 89.6543 11.4688C90.0508 11.8652 90.6159 12.0635 91.3496 12.0635C92.0924 12.0635 92.6598 11.8652 93.0518 11.4688C93.4482 11.0723 93.6465 10.514 93.6465 9.79395V3.04688H94.9658ZM98.3496 9.10352V13H97.0371V3.04688H100.708C101.797 3.04688 102.649 3.32487 103.265 3.88086C103.884 4.43685 104.194 5.17285 104.194 6.08887C104.194 7.05501 103.891 7.80013 103.285 8.32422C102.684 8.84375 101.82 9.10352 100.694 9.10352H98.3496ZM98.3496 8.03027H100.708C101.41 8.03027 101.948 7.86621 102.321 7.53809C102.695 7.2054 102.882 6.72689 102.882 6.10254C102.882 5.51009 102.695 5.03613 102.321 4.68066C101.948 4.3252 101.435 4.14062 100.783 4.12695H98.3496V8.03027ZM107.188 11.9268H111.905V13H105.869V3.04688H107.188V11.9268ZM120.607 8.34473C120.607 9.31999 120.443 10.1722 120.115 10.9014C119.787 11.626 119.322 12.1797 118.721 12.5625C118.119 12.9453 117.417 13.1367 116.615 13.1367C115.831 13.1367 115.136 12.9453 114.53 12.5625C113.924 12.1751 113.452 11.626 113.115 10.915C112.783 10.1995 112.612 9.3724 112.603 8.43359V7.71582C112.603 6.75879 112.769 5.91341 113.102 5.17969C113.434 4.44596 113.904 3.88542 114.51 3.49805C115.12 3.10612 115.818 2.91016 116.602 2.91016C117.399 2.91016 118.101 3.10384 118.707 3.49121C119.318 3.87402 119.787 4.43229 120.115 5.16602C120.443 5.89518 120.607 6.74512 120.607 7.71582V8.34473ZM119.302 7.70215C119.302 6.52181 119.065 5.61719 118.591 4.98828C118.117 4.35482 117.454 4.03809 116.602 4.03809C115.772 4.03809 115.118 4.35482 114.64 4.98828C114.166 5.61719 113.922 6.49219 113.908 7.61328V8.34473C113.908 9.48861 114.147 10.3887 114.626 11.0449C115.109 11.6966 115.772 12.0225 116.615 12.0225C117.463 12.0225 118.119 11.7148 118.584 11.0996C119.049 10.4798 119.288 9.59342 119.302 8.44043V7.70215ZM127.922 10.4023H123.752L122.815 13H121.462L125.263 3.04688H126.411L130.219 13H128.872L127.922 10.4023ZM124.148 9.32227H127.532L125.837 4.66699L124.148 9.32227ZM131.559 13V3.04688H134.368C135.234 3.04688 136 3.23828 136.665 3.62109C137.33 4.00391 137.843 4.5485 138.203 5.25488C138.568 5.96126 138.752 6.77246 138.757 7.68848V8.32422C138.757 9.26302 138.575 10.0856 138.21 10.792C137.85 11.4984 137.333 12.0407 136.658 12.4189C135.988 12.7972 135.207 12.9909 134.313 13H131.559ZM132.871 4.12695V11.9268H134.252C135.264 11.9268 136.05 11.6123 136.61 10.9834C137.175 10.3545 137.458 9.45898 137.458 8.29688V7.71582C137.458 6.58561 137.191 5.70833 136.658 5.08398C136.13 4.45508 135.378 4.13607 134.402 4.12695H132.871ZM149.715 10.4023H145.545L144.608 13H143.255L147.056 3.04688H148.204L152.012 13H150.665L149.715 10.4023ZM145.941 9.32227H149.325L147.63 4.66699L145.941 9.32227ZM67.1162 25.1035V29H65.8037V19.0469H69.4746C70.5638 19.0469 71.416 19.3249 72.0312 19.8809C72.651 20.4368 72.9609 21.1729 72.9609 22.0889C72.9609 23.055 72.6579 23.8001 72.0518 24.3242C71.4502 24.8438 70.5866 25.1035 69.4609 25.1035H67.1162ZM67.1162 24.0303H69.4746C70.1764 24.0303 70.7142 23.8662 71.0879 23.5381C71.4616 23.2054 71.6484 22.7269 71.6484 22.1025C71.6484 21.5101 71.4616 21.0361 71.0879 20.6807C70.7142 20.3252 70.2015 20.1406 69.5498 20.127H67.1162V24.0303ZM78.2861 24.9736H75.9482V29H74.6289V19.0469H77.9238C79.0449 19.0469 79.9062 19.3021 80.5078 19.8125C81.1139 20.3229 81.417 21.0658 81.417 22.041C81.417 22.6608 81.2484 23.2008 80.9111 23.6611C80.5785 24.1214 80.1136 24.4655 79.5166 24.6934L81.8545 28.918V29H80.4463L78.2861 24.9736ZM75.9482 23.9004H77.9648C78.6165 23.9004 79.1338 23.7318 79.5166 23.3945C79.904 23.0573 80.0977 22.6061 80.0977 22.041C80.0977 21.4258 79.9131 20.9541 79.5439 20.626C79.1794 20.2979 78.6507 20.1315 77.958 20.127H75.9482V23.9004ZM90.9189 24.3447C90.9189 25.32 90.7549 26.1722 90.4268 26.9014C90.0986 27.626 89.6338 28.1797 89.0322 28.5625C88.4307 28.9453 87.7288 29.1367 86.9268 29.1367C86.1429 29.1367 85.4479 28.9453 84.8418 28.5625C84.2357 28.1751 83.764 27.626 83.4268 26.915C83.0941 26.1995 82.9232 25.3724 82.9141 24.4336V23.7158C82.9141 22.7588 83.0804 21.9134 83.4131 21.1797C83.7458 20.446 84.2152 19.8854 84.8213 19.498C85.432 19.1061 86.1292 18.9102 86.9131 18.9102C87.7106 18.9102 88.4124 19.1038 89.0186 19.4912C89.6292 19.874 90.0986 20.4323 90.4268 21.166C90.7549 21.8952 90.9189 22.7451 90.9189 23.7158V24.3447ZM89.6133 23.7021C89.6133 22.5218 89.3763 21.6172 88.9023 20.9883C88.4284 20.3548 87.7653 20.0381 86.9131 20.0381C86.0837 20.0381 85.4297 20.3548 84.9512 20.9883C84.4772 21.6172 84.2334 22.4922 84.2197 23.6133V24.3447C84.2197 25.4886 84.459 26.3887 84.9375 27.0449C85.4206 27.6966 86.0837 28.0225 86.9268 28.0225C87.7744 28.0225 88.4307 27.7148 88.8955 27.0996C89.3604 26.4798 89.5996 25.5934 89.6133 24.4404V23.7021ZM98.377 24.6045H94.2002V29H92.8877V19.0469H99.0537V20.127H94.2002V23.5312H98.377V24.6045ZM102.034 29H100.722V19.0469H102.034V29ZM105.76 27.9268H110.477V29H104.44V19.0469H105.76V27.9268ZM117.6 24.3994H113.286V27.9268H118.297V29H111.974V19.0469H118.229V20.127H113.286V23.3262H117.6V24.3994ZM124.716 25.1035V29H123.403V19.0469H127.074C128.163 19.0469 129.016 19.3249 129.631 19.8809C130.251 20.4368 130.561 21.1729 130.561 22.0889C130.561 23.055 130.257 23.8001 129.651 24.3242C129.05 24.8438 128.186 25.1035 127.061 25.1035H124.716ZM124.716 24.0303H127.074C127.776 24.0303 128.314 23.8662 128.688 23.5381C129.061 23.2054 129.248 22.7269 129.248 22.1025C129.248 21.5101 129.061 21.0361 128.688 20.6807C128.314 20.3252 127.801 20.1406 127.149 20.127H124.716V24.0303ZM133.644 29H132.331V19.0469H133.644V29ZM143.371 25.8418C143.248 26.8945 142.858 27.708 142.202 28.2822C141.55 28.8519 140.682 29.1367 139.598 29.1367C138.422 29.1367 137.479 28.7152 136.768 27.8721C136.061 27.029 135.708 25.901 135.708 24.4883V23.5312C135.708 22.6061 135.872 21.7926 136.2 21.0908C136.533 20.389 137.002 19.8512 137.608 19.4775C138.215 19.0993 138.916 18.9102 139.714 18.9102C140.771 18.9102 141.619 19.2064 142.257 19.7988C142.895 20.3867 143.266 21.2025 143.371 22.2461H142.052C141.938 21.4531 141.689 20.8789 141.307 20.5234C140.928 20.168 140.397 19.9902 139.714 19.9902C138.875 19.9902 138.217 20.3001 137.738 20.9199C137.264 21.5397 137.027 22.4215 137.027 23.5654V24.5293C137.027 25.6094 137.253 26.4684 137.704 27.1064C138.155 27.7445 138.786 28.0635 139.598 28.0635C140.327 28.0635 140.885 27.8994 141.272 27.5713C141.664 27.2386 141.924 26.6621 142.052 25.8418H143.371ZM151.841 20.127H148.642V29H147.336V20.127H144.144V19.0469H151.841V20.127ZM160.324 19.0469V25.8145C160.32 26.7533 160.023 27.5212 159.436 28.1182C158.852 28.7152 158.059 29.0501 157.057 29.123L156.708 29.1367C155.619 29.1367 154.751 28.8428 154.104 28.2549C153.456 27.667 153.128 26.8581 153.119 25.8281V19.0469H154.418V25.7871C154.418 26.5072 154.616 27.0677 155.013 27.4688C155.409 27.8652 155.974 28.0635 156.708 28.0635C157.451 28.0635 158.018 27.8652 158.41 27.4688C158.807 27.0723 159.005 26.514 159.005 25.7939V19.0469H160.324ZM166.046 24.9736H163.708V29H162.389V19.0469H165.684C166.805 19.0469 167.666 19.3021 168.268 19.8125C168.874 20.3229 169.177 21.0658 169.177 22.041C169.177 22.6608 169.008 23.2008 168.671 23.6611C168.338 24.1214 167.873 24.4655 167.276 24.6934L169.614 28.918V29H168.206L166.046 24.9736ZM163.708 23.9004H165.725C166.376 23.9004 166.894 23.7318 167.276 23.3945C167.664 23.0573 167.857 22.6061 167.857 22.041C167.857 21.4258 167.673 20.9541 167.304 20.626C166.939 20.2979 166.41 20.1315 165.718 20.127H163.708V23.9004ZM176.648 24.3994H172.335V27.9268H177.346V29H171.022V19.0469H177.277V20.127H172.335V23.3262H176.648V24.3994ZM71.2588 41.96C71.2588 40.93 71.3955 39.9411 71.6689 38.9932C71.9469 38.0452 72.3594 37.1839 72.9062 36.4092C73.4531 35.6344 74.0205 35.0876 74.6084 34.7686L74.8682 35.6025C74.2028 36.113 73.6559 36.8923 73.2275 37.9404C72.8037 38.9886 72.5713 40.1621 72.5303 41.4609L72.5234 42.042C72.5234 43.8011 72.8447 45.3278 73.4873 46.6221C73.8747 47.3968 74.335 48.0029 74.8682 48.4404L74.6084 49.2129C74.0023 48.8757 73.4235 48.3105 72.8721 47.5176C71.7965 45.9681 71.2588 44.1156 71.2588 41.96ZM77.4658 46H76.2012V35.5H77.4658V46ZM82.5654 46.1367C81.5628 46.1367 80.7471 45.8086 80.1182 45.1523C79.4893 44.4915 79.1748 43.6097 79.1748 42.5068V42.2744C79.1748 41.5407 79.3138 40.8867 79.5918 40.3125C79.8743 39.7337 80.2663 39.2826 80.7676 38.959C81.2734 38.6309 81.8203 38.4668 82.4082 38.4668C83.3698 38.4668 84.1172 38.7835 84.6504 39.417C85.1836 40.0505 85.4502 40.9574 85.4502 42.1377V42.6641H80.4395C80.4577 43.3932 80.6696 43.9834 81.0752 44.4346C81.4854 44.8812 82.0049 45.1045 82.6338 45.1045C83.0804 45.1045 83.4587 45.0133 83.7686 44.8311C84.0785 44.6488 84.3496 44.4072 84.582 44.1064L85.3545 44.708C84.7347 45.6605 83.805 46.1367 82.5654 46.1367ZM82.4082 39.5059C81.8978 39.5059 81.4694 39.6927 81.123 40.0664C80.7767 40.4355 80.5625 40.9551 80.4805 41.625H84.1855V41.5293C84.1491 40.8867 83.9759 40.39 83.666 40.0391C83.3561 39.6836 82.9368 39.5059 82.4082 39.5059ZM91.2266 44.0381C91.2266 43.6963 91.0967 43.432 90.8369 43.2451C90.5817 43.0537 90.1328 42.8896 89.4902 42.7529C88.8522 42.6162 88.3441 42.4521 87.9658 42.2607C87.5921 42.0693 87.3141 41.8415 87.1318 41.5771C86.9541 41.3128 86.8652 40.9984 86.8652 40.6338C86.8652 40.0277 87.1204 39.515 87.6309 39.0957C88.1458 38.6764 88.8021 38.4668 89.5996 38.4668C90.4382 38.4668 91.1172 38.6833 91.6367 39.1162C92.1608 39.5492 92.4229 40.1029 92.4229 40.7773H91.1514C91.1514 40.431 91.0033 40.1325 90.707 39.8818C90.4154 39.6312 90.0462 39.5059 89.5996 39.5059C89.1393 39.5059 88.7793 39.6061 88.5195 39.8066C88.2598 40.0072 88.1299 40.2692 88.1299 40.5928C88.1299 40.8981 88.2507 41.1283 88.4922 41.2832C88.7337 41.4382 89.1689 41.5863 89.7979 41.7275C90.4313 41.8688 90.944 42.0374 91.3359 42.2334C91.7279 42.4294 92.0173 42.6663 92.2041 42.9443C92.3955 43.2178 92.4912 43.5527 92.4912 43.9492C92.4912 44.61 92.2269 45.141 91.6982 45.542C91.1696 45.9385 90.4837 46.1367 89.6406 46.1367C89.0482 46.1367 88.5241 46.0319 88.0684 45.8223C87.6126 45.6126 87.2549 45.321 86.9951 44.9473C86.7399 44.569 86.6123 44.1611 86.6123 43.7236H87.877C87.8997 44.1475 88.0684 44.4847 88.3828 44.7354C88.7018 44.9814 89.1211 45.1045 89.6406 45.1045C90.1191 45.1045 90.502 45.0088 90.7891 44.8174C91.0807 44.6214 91.2266 44.3617 91.2266 44.0381ZM98.4453 44.0381C98.4453 43.6963 98.3154 43.432 98.0557 43.2451C97.8005 43.0537 97.3516 42.8896 96.709 42.7529C96.071 42.6162 95.5628 42.4521 95.1846 42.2607C94.8109 42.0693 94.5329 41.8415 94.3506 41.5771C94.1729 41.3128 94.084 40.9984 94.084 40.6338C94.084 40.0277 94.3392 39.515 94.8496 39.0957C95.3646 38.6764 96.0208 38.4668 96.8184 38.4668C97.6569 38.4668 98.3359 38.6833 98.8555 39.1162C99.3796 39.5492 99.6416 40.1029 99.6416 40.7773H98.3701C98.3701 40.431 98.222 40.1325 97.9258 39.8818C97.6341 39.6312 97.265 39.5059 96.8184 39.5059C96.3581 39.5059 95.998 39.6061 95.7383 39.8066C95.4785 40.0072 95.3486 40.2692 95.3486 40.5928C95.3486 40.8981 95.4694 41.1283 95.7109 41.2832C95.9525 41.4382 96.3877 41.5863 97.0166 41.7275C97.6501 41.8688 98.1628 42.0374 98.5547 42.2334C98.9466 42.4294 99.236 42.6663 99.4229 42.9443C99.6143 43.2178 99.71 43.5527 99.71 43.9492C99.71 44.61 99.4456 45.141 98.917 45.542C98.3883 45.9385 97.7025 46.1367 96.8594 46.1367C96.2669 46.1367 95.7428 46.0319 95.2871 45.8223C94.8314 45.6126 94.4736 45.321 94.2139 44.9473C93.9587 44.569 93.8311 44.1611 93.8311 43.7236H95.0957C95.1185 44.1475 95.2871 44.4847 95.6016 44.7354C95.9206 44.9814 96.3398 45.1045 96.8594 45.1045C97.3379 45.1045 97.7207 45.0088 98.0078 44.8174C98.2995 44.6214 98.4453 44.3617 98.4453 44.0381ZM106.546 36.8125V38.6035H107.927V39.5811H106.546V44.168C106.546 44.4642 106.607 44.6875 106.73 44.8379C106.854 44.9837 107.063 45.0566 107.359 45.0566C107.505 45.0566 107.706 45.0293 107.961 44.9746V46C107.628 46.0911 107.305 46.1367 106.99 46.1367C106.425 46.1367 105.999 45.9658 105.712 45.624C105.425 45.2822 105.281 44.7969 105.281 44.168V39.5811H103.935V38.6035H105.281V36.8125H106.546ZM110.675 39.499C111.235 38.8109 111.965 38.4668 112.862 38.4668C114.425 38.4668 115.214 39.3486 115.228 41.1123V46H113.963V41.1055C113.958 40.5723 113.835 40.1781 113.594 39.9229C113.357 39.6676 112.985 39.54 112.479 39.54C112.069 39.54 111.709 39.6494 111.399 39.8682C111.09 40.0869 110.848 40.374 110.675 40.7295V46H109.41V35.5H110.675V39.499ZM121.688 46C121.615 45.8542 121.555 45.5944 121.51 45.2207C120.922 45.8314 120.22 46.1367 119.404 46.1367C118.675 46.1367 118.076 45.9316 117.606 45.5215C117.142 45.1068 116.909 44.5827 116.909 43.9492C116.909 43.179 117.201 42.582 117.784 42.1582C118.372 41.7298 119.197 41.5156 120.259 41.5156H121.489V40.9346C121.489 40.4925 121.357 40.1416 121.093 39.8818C120.828 39.6175 120.439 39.4854 119.924 39.4854C119.473 39.4854 119.094 39.5993 118.789 39.8271C118.484 40.055 118.331 40.3307 118.331 40.6543H117.06C117.06 40.2852 117.189 39.9297 117.449 39.5879C117.714 39.2415 118.069 38.9681 118.516 38.7676C118.967 38.5671 119.461 38.4668 119.999 38.4668C120.851 38.4668 121.519 38.681 122.002 39.1094C122.485 39.5332 122.736 40.1188 122.754 40.8662V44.2705C122.754 44.9495 122.84 45.4896 123.014 45.8906V46H121.688ZM119.589 45.0361C119.985 45.0361 120.361 44.9336 120.717 44.7285C121.072 44.5234 121.33 44.2568 121.489 43.9287V42.4111H120.498C118.949 42.4111 118.174 42.8646 118.174 43.7715C118.174 44.168 118.306 44.4779 118.57 44.7012C118.835 44.9245 119.174 45.0361 119.589 45.0361ZM125.933 38.6035L125.974 39.5332C126.539 38.8223 127.277 38.4668 128.188 38.4668C129.752 38.4668 130.54 39.3486 130.554 41.1123V46H129.289V41.1055C129.285 40.5723 129.161 40.1781 128.92 39.9229C128.683 39.6676 128.312 39.54 127.806 39.54C127.396 39.54 127.035 39.6494 126.726 39.8682C126.416 40.0869 126.174 40.374 126.001 40.7295V46H124.736V38.6035H125.933ZM136.385 41.0098L136.891 36.0469H141.99V37.2158H137.964L137.663 39.9297C138.151 39.6426 138.704 39.499 139.324 39.499C140.231 39.499 140.951 39.7998 141.484 40.4014C142.018 40.9984 142.284 41.8073 142.284 42.8281C142.284 43.8535 142.006 44.6624 141.45 45.2549C140.899 45.8428 140.126 46.1367 139.133 46.1367C138.253 46.1367 137.535 45.8929 136.979 45.4053C136.424 44.9176 136.107 44.2432 136.029 43.3818H137.226C137.303 43.9515 137.506 44.3822 137.834 44.6738C138.162 44.9609 138.595 45.1045 139.133 45.1045C139.721 45.1045 140.181 44.904 140.514 44.5029C140.851 44.1019 141.02 43.5482 141.02 42.8418C141.02 42.1764 140.837 41.6432 140.473 41.2422C140.113 40.8366 139.632 40.6338 139.03 40.6338C138.479 40.6338 138.046 40.7546 137.731 40.9961L137.396 41.2695L136.385 41.0098ZM145.688 36.0469L148.942 44.168L152.196 36.0469H153.898V46H152.586V42.124L152.709 37.9404L149.441 46H148.437L145.176 37.9609L145.306 42.124V46H143.993V36.0469H145.688ZM156.216 46V36.0469H159.47C160.55 36.0469 161.361 36.2702 161.903 36.7168C162.45 37.1634 162.724 37.8242 162.724 38.6992C162.724 39.1641 162.591 39.5765 162.327 39.9365C162.063 40.292 161.703 40.5677 161.247 40.7637C161.785 40.9141 162.209 41.2012 162.519 41.625C162.833 42.0443 162.99 42.5456 162.99 43.1289C162.99 44.0221 162.701 44.724 162.122 45.2344C161.543 45.7448 160.725 46 159.668 46H156.216ZM157.528 41.3447V44.9268H159.695C160.306 44.9268 160.787 44.7695 161.138 44.4551C161.493 44.1361 161.671 43.6986 161.671 43.1426C161.671 41.944 161.019 41.3447 159.716 41.3447H157.528ZM157.528 40.292H159.511C160.085 40.292 160.543 40.1484 160.885 39.8613C161.231 39.5742 161.404 39.1846 161.404 38.6924C161.404 38.1455 161.245 37.749 160.926 37.5029C160.607 37.2523 160.121 37.127 159.47 37.127H157.528V40.292ZM167.659 42.0283C167.659 43.0446 167.525 44.0199 167.256 44.9541C166.992 45.8838 166.584 46.7428 166.032 47.5312C165.485 48.3197 164.911 48.8802 164.31 49.2129L164.043 48.4404C164.745 47.9027 165.308 47.0687 165.731 45.9385C166.16 44.8037 166.379 43.5459 166.388 42.165V41.9463C166.388 40.9893 166.287 40.1006 166.087 39.2803C165.886 38.4554 165.606 37.7171 165.246 37.0654C164.891 36.4137 164.49 35.9056 164.043 35.541L164.31 34.7686C164.911 35.1012 165.483 35.6572 166.025 36.4365C166.572 37.2158 166.98 38.0749 167.249 39.0137C167.522 39.9525 167.659 40.9574 167.659 42.0283Z" transform="translate(0 36)" fill="#00151E"/>
<path d="M38.1235 12.1765C38.0501 12.1765 37.9766 12.1765 37.9766 12.1765C37.389 9.80882 35.2588 7.91471 32.6144 7.50882C31.3656 3.17941 27.0317 0 21.9633 0C17.1886 0 13.0751 2.84118 11.606 6.76471C8.52087 6.83235 5.94992 8.79412 5.28881 11.5C5.21536 11.5 5.1419 11.5 5.1419 11.5C2.27713 11.5 0 13.5971 0 16.2353V17.25C0 20.4294 2.79132 23 6.24374 23H17.5559V17.5882H13.0017L21.9633 7.30588L30.9249 17.5882H26.3706V23H38.1235C41.3556 23 44 20.5647 44 17.5882C44 14.6118 41.3556 12.1765 38.1235 12.1765Z" transform="translate(96)" fill="#00151E"/>
<path d="M12 7.14708L6 0L0 7.14708H3V16.4804H9V7.14708H12Z" transform="translate(112 9.51953)" fill="#00151E"/>
</svg>
