<svg xmlns:dc="http://purl.org/dc/elements/1.1/" xmlns:cc="http://creativecommons.org/ns#" xmlns:rdf="http://www.w3.org/1999/02/22-rdf-syntax-ns#" xmlns:svg="http://www.w3.org/2000/svg" xmlns="http://www.w3.org/2000/svg" xmlns:sodipodi="http://sodipodi.sourceforge.net/DTD/sodipodi-0.dtd" xmlns:inkscape="http://www.inkscape.org/namespaces/inkscape" height="16px" id= "Shape" version="1.1" x="0px" y="0px" viewBox="0 0 100 100" xml:space="preserve"><path style= "text-indent:0;text-transform:none;direction:ltr;block-progression:tb;baseline-shift:baseline;color:#000000;enable-background:accumulate;" d="m 11.812947,6.0021984 a 2.0001818,2.000145 0 0 0 -1.812484,1.9999455 l 0,25.9992911 a 2.0001818,2.000145 0 1 0 3.999965,0 l 0,-23.999346 23.999787,0 a 2.0001818,2.000145 0 1 0 0,-3.9998906 l -25.99977,0 a 2.0001818,2.000145 0 0 0 -0.187498,0 z m 49.999558,0 a 2.0021785,2.0021416 0 0 0 0.187498,3.9998906 l 23.999788,0 0,23.999346 a 2.0001818,2.000145 0 1 0 3.999964,0 l 0,-25.9992911 A 2.0001818,2.000145 0 0 0 87.999773,6.0021984 l -25.99977,0 a 2.0001818,2.000145 0 0 0 -0.187498,0 z M 22.81285,18.001871 a 2.0001823,2.0001455 0 0 0 -1.812484,1.999945 l 0,59.998365 a 2.0001823,2.0001455 0 0 0 1.999982,1.999946 l 53.999522,0 a 2.0001823,2.0001455 0 0 0 1.999983,-1.999946 l 0,-59.998365 A 2.0001823,2.0001455 0 0 0 76.99987,18.001871 l -53.999522,0 a 2.0001823,2.0001455 0 0 0 -0.187498,0 z m 2.18748,3.999891 49.999558,0 0,55.998474 -49.999558,0 0,-55.998474 z M 11.781697,63.969368 a 2.0001818,2.000145 0 0 0 -1.781234,2.031195 l 0,25.999291 a 2.0001818,2.000145 0 0 0 1.999982,1.999946 l 25.99977,0 a 2.0001818,2.000145 0 1 0 0,-3.999891 l -23.999787,0 0,-23.999346 a 2.0001818,2.000145 0 0 0 -2.031232,-2.031195 2.0001818,2.000145 0 0 0 -0.187499,0 z m 75.999328,0 a 2.0001818,2.000145 0 0 0 -1.781234,2.031195 l 0,23.999346 -23.999788,0 a 2.0001818,2.000145 0 1 0 0,3.999891 l 25.99977,0 a 2.0001818,2.000145 0 0 0 1.999982,-1.999946 l 0,-25.999291 a 2.0001818,2.000145 0 0 0 -2.031232,-2.031195 2.0001818,2.000145 0 0 0 -0.187498,0 z" fill="#000000" fill-opacity="1" stroke="none" marker="none" visibility="visible" display="inline" overflow="visible" id= "Shape"></path></svg>
