<svg width="16" height="16" viewBox="0 0 32 32" fill="none" xmlns="http://www.w3.org/2000/svg">
<rect width="8" height="8" fill="black" fill-opacity="0" transform="scale(4)"/>
<circle cx="16" cy="16" r="16" fill="white"/>
<path d="M18.0938 28H13.8457V12.1504H18.0938V28ZM13.5967 8.04883C13.5967 7.41406 13.8066 6.8916 14.2266 6.48145C14.6562 6.07129 15.2373 5.86621 15.9697 5.86621C16.6924 5.86621 17.2686 6.07129 17.6982 6.48145C18.1279 6.8916 18.3428 7.41406 18.3428 8.04883C18.3428 8.69336 18.123 9.2207 17.6836 9.63086C17.2539 10.041 16.6826 10.2461 15.9697 10.2461C15.2568 10.2461 14.6807 10.041 14.2412 9.63086C13.8115 9.2207 13.5967 8.69336 13.5967 8.04883Z" fill="black"/>
</svg>
