<?xml version="1.0" encoding="UTF-8"?>
<svg width="579px" height="138px" viewBox="0 0 579 138" version="1.1" xmlns="http://www.w3.org/2000/svg" xmlns:xlink="http://www.w3.org/1999/xlink">
    <title>Group Copy</title>
    <defs>
        <rect id="path-1" x="0" y="0" width="579" height="138"></rect>
        <polygon id="path-3" points="0.0766420106 0 638.683422 0 638.683422 639.600192 0.0766420106 639.600192"></polygon>
    </defs>
    <g id="MAIN" stroke="none" stroke-width="1" fill="none" fill-rule="evenodd">
        <g id="Group-Copy">
            <mask id="mask-2" fill="white">
                <use xlink:href="#path-1"></use>
            </mask>
            <g id="Mask"></g>
            <g mask="url(#mask-2)" id="2650151">
                <g transform="translate(-81.000000, -261.000000)">
                    <g transform="translate(0.000000, 105.941912)">
                        <g id="Group-3">
                            <mask id="mask-4" fill="white">
                                <use xlink:href="#path-3"></use>
                            </mask>
                            <g id="Clip-2"></g>
                        </g>
                        <path d="M337.570698,163.100599 C339.200598,162.83911 344.272005,163.740493 344.272005,163.740493 C348.13704,165.093195 350.282005,165.823604 352.61824,165.597316 C354.944912,165.383599 356.632193,168.837013 356.632193,168.837013 C356.632193,168.837013 366.033149,169.072101 365.460703,163.746779 C365.460703,163.746779 359.0545,158.060651 358.517576,157.234698 C357.43553,155.597878 358.189683,152.718986 355.550147,150.107868 C352.896949,147.490464 350.970579,143.025038 350.970579,143.025038 C350.970579,143.025038 348.847474,142.797492 349.004589,144.650544 C349.165803,146.523709 351.171413,148.777794 350.965114,149.626376 C350.921395,149.798607 350.86538,149.963295 350.783407,150.114154 C350.783407,150.114154 350.77521,150.125468 350.772477,150.156897 C350.495135,150.736447 350.00193,151.211653 349.43085,151.348683 C349.402159,151.366283 349.352975,151.386398 349.298327,151.388912 C347.02767,151.732116 342.468595,149.54969 340.544958,148.404418 C337.872633,146.805313 334.055416,144.792602 333.678339,146.674568 C333.301263,148.555277 335.741331,148.012185 340.953458,152.558069 L340.65289,153.17282 C341.008107,153.519796 336.246832,152.286523 332.26157,150.391986 C329.514102,149.094598 329.434861,151.224224 330.034632,152.035092 C330.626205,152.85853 333.597732,153.790085 335.571919,154.751811 C336.88349,155.374104 338.253808,156.012741 339.070807,156.388631 L339.029821,157.28247 C332.876368,157.129097 331.530642,155.245874 330.507344,156.601091 C329.492243,157.944993 333.670142,159.603185 335.630667,159.673586 C336.479089,159.708786 338.005156,160.139991 339.465645,160.616454 C334.735793,161.345606 333.29853,160.16262 332.742479,161.404693 C332.175498,162.688251 335.939432,163.362088 337.570698,163.100599" id="Fill-61" fill="#CC744E"></path>
                        <path d="M574.051104,129.191946 C574.051104,129.191946 573.164772,132.3821 571.726088,137.198853 C571.148046,139.165904 570.46724,141.397751 569.722207,143.806128 C568.566122,147.525872 567.243047,151.636505 565.842899,155.721919 C565.085021,157.953765 564.301453,160.173002 563.505038,162.316584 C561.488312,167.776412 559.407359,172.794914 557.48055,176.312909 C557.210797,176.804672 556.941044,177.271216 556.684136,177.699933 C555.951949,178.910426 554.847245,180.310058 553.459943,181.861003 C551.23769,184.370254 548.270405,187.257784 544.904913,190.284017 C543.222167,191.809742 541.436657,193.373296 539.599767,194.936849 C536.593945,197.496538 533.446825,200.094054 530.325395,202.590696 C528.372895,204.166859 526.433241,205.705194 524.557814,207.167873 C514.936617,214.695626 506.972475,220.483296 506.972475,220.483296 L492.611328,191.683649 C496.709008,188.96004 504.262097,184.395472 512.162012,179.73003 C514.024594,178.620412 515.900021,177.510793 517.762603,176.413784 C520.652816,174.724137 523.491647,173.072319 526.112107,171.533984 C528.167369,170.348709 530.094178,169.226481 531.828305,168.230347 C534.281775,166.805495 536.349883,165.620221 537.827103,164.762788 C539.419931,163.842309 540.344799,163.312719 540.344799,163.312719 C540.344799,163.312719 540.999914,162.064398 542.091772,159.983863 C543.363466,157.550267 545.251738,153.969225 547.409764,149.921639 C548.360323,148.131118 549.362263,146.239723 550.40274,144.323109 C552.034105,141.271658 553.742542,138.131942 555.386752,135.130928 C556.452919,133.189095 557.506241,131.2977 558.482491,129.545007 C561.24425,124.652597 563.55642,120.743714 564.751041,119.18016 C564.751041,119.18016 572.11145,121.626365 574.051104,129.191946" id="Fill-63" fill="#CCD4D3"></path>
                        <path d="M532.338048,203.835211 C530.416331,205.464022 528.507257,207.053743 526.661398,208.56528 C524.992538,195.104779 518.658458,185.357969 514.461024,180.210924 C516.294241,179.064241 518.1401,177.917557 519.973317,176.783904 C524.271894,182.20459 529.999116,191.378058 532.338048,203.835211" id="Fill-64" fill="#89B6CD"></path>
                        <path d="M546.2424,190.16213 C544.641655,191.637346 542.943154,193.149137 541.195776,194.660928 C538.006505,182.590983 532.141179,175.531893 528.365376,172.032828 C530.320485,170.886793 532.153399,169.801717 533.803022,168.83856 C537.810994,172.898451 542.955374,179.725895 546.2424,190.16213" id="Fill-65" fill="#89B6CD"></path>
                        <path d="M560.146752,176.698039 C559.874118,177.233835 559.601483,177.742154 559.341832,178.209257 C558.601824,179.528139 557.485321,181.053095 556.083202,182.742912 C550.487706,173.332144 544.43782,167.438393 540.283392,164.113714 C541.893233,163.110814 542.827979,162.533804 542.827979,162.533804 C542.827979,162.533804 543.490091,161.173707 544.593611,158.90688 C548.877865,162.382682 554.642135,168.056619 560.146752,176.698039" id="Fill-66" fill="#89B6CD"></path>
                        <path d="M566.10576,156.327566 C565.370746,158.544969 564.610817,160.749843 563.83843,162.879552 C558.506468,157.329782 552.327371,153.082893 548.228736,150.564826 C549.150617,148.785893 550.12233,146.906738 551.131417,145.002528 C555.018268,147.357735 560.736424,151.216266 566.10576,156.327566" id="Fill-67" fill="#89B6CD"></path>
                        <path d="M456.85728,199.971654 L454.304149,232.401312 C454.304149,232.401312 445.355424,230.009065 434.147179,226.593397 C431.989783,225.940966 429.755793,225.250157 427.496272,224.533762 C423.500622,223.267278 419.402847,221.911245 415.445493,220.516834 C413.288098,219.762061 411.181765,219.007288 409.152025,218.226929 C404.390436,216.435942 400.113941,214.632162 396.833168,212.917932 C395.03321,211.98406 393.539629,211.088566 392.429017,210.231451 C392.058813,209.95001 391.675843,209.630191 391.267342,209.271994 C388.586554,206.994882 385.331312,203.566421 381.897351,199.664628 C380.480363,198.027154 379.025078,196.325716 377.557028,194.573107 C374.684755,191.106268 371.812483,187.498709 369.182758,184.108626 C367.76577,182.304846 366.438142,180.56503 365.199873,178.940349 C360.680831,172.978921 357.54048,168.616588 357.54048,168.616588 C357.859621,161.056064 363.463744,158.90688 363.463744,158.90688 C365.455186,160.134985 370.101885,163.806509 375.514523,168.232805 C377.122996,169.55046 378.808062,170.932079 380.505894,172.339283 C383.378167,174.718737 386.301502,177.174948 389.020587,179.477645 C390.756716,180.93602 392.403485,182.330432 393.922598,183.609708 C396.399135,185.720514 398.505469,187.524294 399.973519,188.777985 C401.377741,189.967712 402.194743,190.671314 402.194743,190.671314 C402.194743,190.671314 403.573434,190.888791 405.922314,191.246989 C407.990351,191.566808 410.824326,192.014555 414.092334,192.539058 C416.096542,192.846084 418.253938,193.191489 420.526224,193.562479 C423.321903,194.023019 426.270769,194.496351 429.257933,194.995269 C431.377032,195.340673 433.508896,195.698871 435.615229,196.044275 C444.19375,197.50265 452.287175,198.948233 456.85728,199.971654" id="Fill-69" fill="#CCD4D3"></path>
                        <path d="M431.659945,226.442304 C429.65942,225.786089 427.587872,225.091274 425.492648,224.370724 C424.391768,211.76111 425.658372,201.544748 427.126212,194.660928 C429.091224,195.008336 431.068074,195.36861 433.021248,195.716018 C431.54157,202.50977 430.16843,213.202208 431.659945,226.442304" id="Fill-70" fill="#89B6CD"></path>
                        <path d="M419.116896,191.778152 C417.016864,197.758958 414.22128,207.922241 413.793248,220.483296 C411.532704,219.679497 409.325664,218.875699 407.19888,218.044653 C407.827552,206.382763 410.288736,196.873417 412.375392,190.688256 C414.475424,191.015225 416.735968,191.383065 419.116896,191.778152" id="Fill-71" fill="#89B6CD"></path>
                        <path d="M403.226208,191.13984 C400.283039,196.950425 396.758504,204.782084 394.602603,212.537952 C392.894838,211.615837 391.477757,210.731618 390.42403,209.885293 C390.072788,209.607396 389.709434,209.291603 389.321856,208.937915 C391.56254,201.49784 394.796392,194.259871 397.582107,188.70192 C398.914405,189.876669 399.689561,190.571413 399.689561,190.571413 C399.689561,190.571413 400.997636,190.786152 403.226208,191.13984" id="Fill-72" fill="#89B6CD"></path>
                        <path d="M391.308192,184.822397 C387.389749,188.888218 382.286012,194.590437 378.172344,200.619936 C376.62449,199.008713 375.034801,197.334551 373.431168,195.610039 C377.530891,189.870057 382.230234,184.608406 385.953452,180.756576 C387.849922,182.191572 389.64878,183.563629 391.308192,184.822397" id="Fill-73" fill="#89B6CD"></path>
                        <path d="M377.40384,172.435093 C374.353928,175.124089 370.445866,178.821459 367.117635,182.742912 C365.830409,181.163127 364.624361,179.639362 363.499488,178.216435 C366.607383,174.653515 370.028387,171.370698 372.86956,168.83856 C374.330735,169.992588 375.861489,171.202636 377.40384,172.435093" id="Fill-74" fill="#89B6CD"></path>
                        <path d="M540.283392,300.48555 C540.283392,300.48555 522.111548,319.060873 497.393165,323.657091 C475.714246,327.694653 456.230497,327.74544 456.230497,327.74544 C456.230497,327.74544 455.126418,322.907984 453.424837,315.315337 C452.996195,313.360039 452.515595,311.214291 452.009018,308.928879 C451.099776,304.827834 450.086621,300.244312 449.034499,295.39416 C448.579878,293.324592 448.125257,291.216934 447.657647,289.058489 C446.800362,285.109805 445.930088,281.046849 445.059814,276.971198 C444.618182,274.876236 444.176551,272.768578 443.747908,270.673617 C442.669807,265.506046 441.617685,260.389262 440.656487,255.539109 C440.214855,253.342574 439.799202,251.209523 439.409527,249.139955 C438.279469,243.32485 437.33126,238.068402 436.642834,233.789602 C436.24017,231.250255 435.92843,229.05372 435.733593,227.288874 C435.668647,226.654037 435.61669,226.069988 435.577723,225.549422 C435.252993,221.143655 435.084134,217.055306 435.032178,213.38595 C434.99321,210.998963 435.006199,208.802428 435.032178,206.821738 C435.14908,199.825837 435.577723,195.547037 435.577723,195.547037 C440.708443,192.118919 476.077943,203.215865 476.077943,203.215865 C476.077943,203.215865 502.199156,181.237817 506.290744,182.824909 C508.602815,183.71368 510.797985,185.732461 512.88924,188.627317 C514.071254,190.265196 515.214301,192.182402 516.31838,194.340847 C518.18882,197.959417 519.942358,202.22552 521.604971,206.961402 C522.358343,209.14524 523.098725,211.430652 523.826118,213.792245 C525.021122,217.690143 526.13819,221.791188 527.216291,226.006504 C527.748847,228.139555 528.281402,230.310697 528.78798,232.494535 C529.749178,236.608278 530.65842,240.785503 531.489726,244.950032 C531.944347,247.159264 532.37299,249.355799 532.788643,251.539638 C533.503047,255.297871 534.178484,259.005318 534.788975,262.585797 C535.191639,264.896603 535.568325,267.169318 535.919032,269.365853 C536.711371,274.254096 537.399797,278.812224 537.98431,282.849786 C538.335017,285.325649 538.646757,287.598365 538.91953,289.642539 C539.828771,296.359112 540.283392,300.48555 540.283392,300.48555" id="Fill-75" fill="#CCD4D3"></path>
                        <path d="M516.44736,194.531384 C508.53742,202.563091 494.603955,214.390426 478.575918,217.5772 C475.362505,218.211964 471.784818,218.49696 467.985965,218.49696 C457.578149,218.49696 445.570131,216.411307 435.032217,213.962932 C434.993187,211.527512 435.006197,209.286406 435.032217,207.265525 C449.056749,210.63366 465.99547,213.470666 477.300961,211.229561 C492.405304,208.237103 505.948475,196.085908 513.012781,188.70192 C514.19667,190.373033 515.34153,192.329142 516.44736,194.531384" id="Fill-76" fill="#89B6CD"></path>
                        <path d="M526.37904,215.825122 C518.376291,223.678706 498.285653,238.36032 460.11473,238.36032 C453.864596,238.36032 447.124761,237.96899 439.882337,237.078378 C439.482844,234.379552 439.173559,232.045067 438.980256,230.169383 C494.58712,237.388743 518.762897,214.678121 524.175384,208.56528 C524.922823,210.88627 525.657375,213.315214 526.37904,215.825122" id="Fill-77" fill="#89B6CD"></path>
                        <path d="M528.365376,232.979558 C513.098214,241.640461 481.890714,256.237344 445.043762,256.237344 C444.091153,256.237344 443.138543,256.224551 442.185933,256.198965 C441.754083,253.985765 441.347636,251.836531 440.966592,249.751262 C479.198003,250.864258 512.310724,234.78338 526.828499,226.442304 C527.349259,228.591538 527.870019,230.779152 528.365376,232.979558" id="Fill-78" fill="#89B6CD"></path>
                        <path d="M534.324384,252.845923 C521.039259,260.016266 487.201714,276.121182 448.213314,278.08704 C447.779826,276.007767 447.346338,273.915892 446.9256,271.836619 C486.589731,270.009379 521.70224,252.530882 533.04942,246.305664 C533.495657,248.498352 533.916396,250.678439 534.324384,252.845923" id="Fill-79" fill="#89B6CD"></path>
                        <path d="M536.31072,270.750511 C520.966092,279.347718 487.550044,295.3368 450.275331,295.964064 C449.825154,293.959279 449.374976,291.917596 448.911936,289.826716 C486.739725,289.506935 521.429132,272.066536 535.191707,264.182688 C535.590436,266.42116 535.96344,268.622733 536.31072,270.750511" id="Fill-80" fill="#89B6CD"></path>
                        <path d="M536.31072,290.687859 C520.987048,299.19186 487.110386,315.827424 456.450572,315.827424 C455.714936,315.827424 454.9793,315.815009 454.243664,315.79018 C453.832207,313.878332 453.370876,311.780264 452.884608,309.545636 C484.130436,310.998145 521.298758,292.003807 535.412995,284.046048 C535.749642,286.466895 536.048883,288.689108 536.31072,290.687859" id="Fill-81" fill="#89B6CD"></path>
                        <path d="M482.416681,190.688256 C482.416681,190.688256 481.329384,198.896803 484.665984,201.409846 C484.665984,201.409846 482.975671,207.259086 477.963434,208.371555 C472.172079,209.655919 468.910189,204.133519 468.910189,204.133519 C468.910189,204.133519 470.433738,196.122287 466.78896,194.030506 L482.416681,190.688256" id="Fill-82" fill="#9F5839"></path>
                        <path d="M485.947468,175.557027 C485.947468,175.557027 489.347364,169.630368 481.213044,160.236475 C481.213044,160.236475 477.359742,151.241479 464.086402,149.170385 C450.814347,147.100611 440.966592,161.991886 440.966592,170.175879 C440.966592,178.359873 445.676611,170.175879 445.676611,170.175879 C445.676611,170.175879 446.746545,175.912336 448.245479,178.457616 C448.245479,178.457616 447.753541,186.70501 452.816779,186.715584 C457.878733,186.726143 485.947468,175.557027 485.947468,175.557027" id="Fill-83" fill="#215586"></path>
                        <path d="M455.606783,183.455668 C455.606783,183.455668 449.904189,180.851324 451.050537,185.599145 C452.377303,191.098908 458.401873,191.621053 458.811283,189.615453 C459.220693,187.609852 455.606783,183.455668 455.606783,183.455668" id="Fill-84" fill="#B16443"></path>
                        <path d="M484.670428,174.963253 C484.670428,174.963253 487.584864,170.611402 489.837575,174.284767 C492.448898,178.540146 487.869477,181.660121 486.187415,180.519417 C484.505352,179.378712 484.670428,174.963253 484.670428,174.963253" id="Fill-85" fill="#B16443"></path>
                        <path d="M474.990168,199.737497 C466.39217,202.701043 459.655749,198.601752 454.006823,181.290038 C451.094252,172.360593 453.727397,165.359846 463.358767,162.040571 C472.988877,158.721296 478.832898,162.801184 481.746727,171.730629 C487.814792,190.333316 483.872627,196.676934 474.990168,199.737497" id="Fill-86" fill="#BD6843"></path>
                        <path d="M480.611371,179.206375 C480.829219,179.660234 480.597678,180.278495 480.09476,180.585518 C479.59122,180.893243 479.006765,180.774509 478.788917,180.319947 C478.571069,179.866087 478.80261,179.248529 479.305528,178.940804 C479.808446,178.633781 480.393523,178.752516 480.611371,179.206375" id="Fill-87" fill="#884629"></path>
                        <path d="M464.78092,183.424133 C464.894428,183.945016 464.551488,184.506925 464.014737,184.679087 C463.477987,184.850517 462.950897,184.568464 462.837992,184.047581 C462.724484,183.526698 463.067424,182.965521 463.604175,182.793359 C464.140925,182.621196 464.667411,182.903982 464.78092,183.424133" id="Fill-88" fill="#884629"></path>
                        <path d="M476.351106,168.802776 C476.215728,168.859679 476.062299,168.850501 475.926921,168.762393 C474.001543,167.523377 471.530141,168.621054 471.492536,168.635738 C471.215763,168.753216 470.89988,168.588013 470.79609,168.24476 C470.690796,167.903342 470.8352,167.523377 471.114981,167.396721 C471.223284,167.34349 474.08277,166.08061 476.430828,167.593129 C476.695568,167.763838 476.797854,168.163994 476.657963,168.485221 C476.591778,168.643081 476.477459,168.75138 476.351106,168.802776" id="Fill-89" fill="#2B1D10"></path>
                        <path d="M459.133819,174.783677 C459.081883,174.804674 459.023838,174.802502 458.97068,174.772816 C458.860088,174.711997 458.813041,174.557053 458.864365,174.426726 C459.321398,173.268988 460.50064,172.838185 460.547076,172.822257 C460.663779,172.780986 460.78598,172.859183 460.820807,172.99675 C460.856246,173.134317 460.784758,173.279849 460.674166,173.321843 C460.665612,173.322567 459.633622,173.707756 459.263352,174.647558 C459.235857,174.714893 459.188809,174.761956 459.133819,174.783677" id="Fill-90" fill="#2B1D10"></path>
                        <path d="M474.591484,175.608958 C474.874442,176.147903 474.723996,176.666509 474.254724,176.766926 C473.785453,176.867342 473.174702,176.512071 472.890748,175.972492 C472.607791,175.433547 472.758236,174.914941 473.228504,174.814524 C473.697776,174.714108 474.30753,175.070014 474.591484,175.608958" id="Fill-91" fill="#1E3F43"></path>
                        <path d="M464.659373,179.58163 C464.943304,180.120575 464.791874,180.639181 464.32264,180.739598 C463.853406,180.840014 463.242705,180.484743 462.959769,179.945164 C462.675838,179.406219 462.826272,178.887613 463.296502,178.787196 C463.765736,178.68678 464.376438,179.042686 464.659373,179.58163" id="Fill-92" fill="#1E3F43"></path>
                        <path d="M466.78896,190.7529 C466.78896,190.7529 475.219038,189.420693 478.706976,186.715584 C478.706976,186.715584 478.201225,191.737062 473.622636,192.524178 C469.042705,193.311294 466.78896,190.7529 466.78896,190.7529" id="Fill-93" fill="#1E3F43"></path>
                        <path d="M471.254815,186.355075 C470.439268,186.633253 469.540202,186.700615 469.266306,186.715584 L469.217176,185.762542 C470.178883,185.708902 471.608546,185.387063 471.790324,184.923017 C471.852964,184.762097 471.715402,184.485166 471.412029,184.164575 C469.333859,181.957858 466.892132,175.412555 466.78896,175.134376 L467.669603,174.797568 C467.694168,174.86493 470.14572,181.437677 472.091241,183.503433 C472.684478,184.132141 472.87731,184.729664 472.663598,185.274794 C472.457255,185.806202 471.881214,186.141763 471.254815,186.355075" id="Fill-94" fill="#884629"></path>
                        <path d="M460.5274,154.312542 C440.440406,161.601588 452.504438,180.149792 452.504438,180.149792 L455.419847,182.742912 C454.117973,177.418974 455.047695,174.474528 455.047695,174.474528 C453.655084,172.38459 453.515692,168.58049 453.924664,166.789114 C456.478441,164.68502 462.731381,160.708474 474.294388,159.498781 C474.387755,159.591438 477.408366,162.616959 477.731862,165.572986 C477.731862,165.572986 482.347596,169.702674 484.313558,174.555604 L484.665984,169.993515 C484.665984,169.993515 480.033154,147.234548 460.5274,154.312542" id="Fill-95" fill="#2F2113"></path>
                        <path d="M406.261364,246.92212 C406.261364,246.92212 409.074613,241.793396 405.118363,232.978919 C401.160849,224.165716 401.973846,199.805869 421.796819,200.841293 C421.796819,200.841293 433.555566,198.8787 439.485516,206.641196 C445.4142,214.402419 450.231494,241.747547 444.029703,262.037018 C437.827911,282.326489 398.295761,276.895925 406.261364,246.92212" id="Fill-101" fill="#DC3F4E"></path>
                        <path d="M428.352324,320.149625 C428.352324,320.149625 409.731842,326.766688 392.164871,313.391774 C392.164871,313.391774 388.902797,245.774864 395.109624,241.244032 C397.825904,239.260193 403.182307,240.847264 408.348316,243.266268 C415.012088,246.389214 421.383923,250.88165 421.383923,250.88165 C421.383923,250.88165 432.947153,249.230584 442.060654,250.241702 C447.861308,250.868851 452.659224,252.583911 452.875003,256.461996 C453.446183,266.457985 428.352324,320.149625 428.352324,320.149625" id="Fill-102" fill="#E88465"></path>
                        <path d="M444.939264,248.187209 C440.853087,247.736764 440.096879,251.016565 436.010702,252.593121 C431.911258,254.183754 427.002539,255.408401 425.145186,255.591394 C423.287833,255.774387 422.306089,258.22368 422.306089,258.22368 C422.306089,258.22368 421.642749,254.915727 420.634471,254.634199 C419.652728,254.366747 410.989502,245.118555 409.185216,240.346656 C416.15029,243.781297 422.810228,248.722112 422.810228,248.722112 C422.810228,248.722112 434.89629,246.906257 444.421858,248.018292 C444.753529,248.130903 444.939264,248.187209 444.939264,248.187209" id="Fill-103" fill="#E0674B"></path>
                        <path d="M418.792396,227.725227 C418.792396,227.725227 420.337941,245.692601 415.144224,248.261917 C415.144224,248.261917 418.98162,255.071813 429.26981,250.926769 C429.26981,250.926769 427.531073,241.686405 434.335173,230.714906 C438.892411,223.367454 418.792396,227.725227 418.792396,227.725227" id="Fill-110" fill="#E0674B"></path>
                        <path d="M439.780076,222.100915 C439.780076,222.100915 443.856778,218.270763 444.792507,222.3978 C445.876275,227.180693 440.641784,229.455304 439.439304,227.986684 C438.235427,226.519193 439.780076,222.100915 439.780076,222.100915" id="Fill-111" fill="#E88465"></path>
                        <path d="M411.657491,225.737259 C411.657491,225.737259 407.340897,222.300012 407.202512,226.685099 C407.043813,231.766607 412.134856,233.448639 412.966435,231.77723 C413.796745,230.105821 411.657491,225.737259 411.657491,225.737259" id="Fill-112" fill="#E88465"></path>
                        <path d="M426.269541,244.246148 C435.408458,243.570398 440.111527,237.39374 438.748054,220.012794 C438.044158,211.048351 432.914841,205.895442 422.678367,206.65218 C412.441893,207.408919 408.562644,213.227455 409.265236,222.193163 C410.730383,240.868664 416.828209,244.944676 426.269541,244.246148" id="Fill-113" fill="#E88465"></path>
                        <path d="M413.160888,227.315844 C413.118636,227.860243 413.527685,228.355081 414.074512,228.421415 C414.620728,228.486987 415.098972,228.098894 415.141224,227.554495 C415.183476,227.010097 414.774427,226.515258 414.2276,226.449687 C413.680772,226.383352 413.20314,226.771446 413.160888,227.315844" id="Fill-114" fill="#CC5B4B"></path>
                        <path d="M433.0277,225.622562 C433.089677,226.163066 433.581194,226.522643 434.12671,226.426857 C434.671613,226.331071 435.063109,225.815653 435.001132,225.275149 C434.939155,224.735404 434.447638,224.375067 433.902122,224.471613 C433.357219,224.567399 432.965723,225.082817 433.0277,225.622562" id="Fill-115" fill="#CC5B4B"></path>
                        <path d="M415.481057,218.464277 C415.718897,218.530409 416.008296,218.494875 416.18127,218.369521 C417.664858,217.291674 420.515609,217.204815 420.543883,217.203828 C420.866547,217.195931 421.116029,217.03307 421.102724,216.842571 C421.087755,216.651085 420.818314,216.503029 420.492324,216.510926 C420.354277,216.514874 417.087723,216.615552 415.276482,217.931276 C415.071906,218.078345 415.108497,218.297467 415.359642,218.418873 C415.396233,218.437627 415.439477,218.452433 415.481057,218.464277" id="Fill-116" fill="#DC3F4E"></path>
                        <path d="M429.369995,213.402 C429.459057,213.434726 429.560844,213.448571 429.66581,213.43976 C429.692847,213.438502 432.410855,213.224527 434.074422,214.410198 C434.305031,214.575084 434.658102,214.558722 434.864855,214.377473 C435.070017,214.196223 435.052523,213.916798 434.821914,213.751911 C432.787782,212.299401 429.676943,212.549878 429.54653,212.561206 C429.239581,212.586379 429.018514,212.80413 429.051913,213.047054 C429.072588,213.206906 429.19823,213.337808 429.369995,213.402" id="Fill-117" fill="#DC3F4E"></path>
                        <path d="M419.126381,221.518927 C419.200504,222.066521 419.701395,222.492008 420.244963,222.46872 C420.787408,222.445431 421.16813,221.982808 421.094007,221.434584 C421.018761,220.886361 420.51787,220.461503 419.975425,220.484162 C419.431857,220.50745 419.051135,220.970703 419.126381,221.518927" id="Fill-118" fill="#1E3F43"></path>
                        <path d="M431.044159,219.532287 C431.11829,220.080029 431.619236,220.50626 432.162864,220.482336 C432.706491,220.459671 433.086132,219.996294 433.012001,219.447922 C432.936746,218.90018 432.436924,218.474578 431.893296,218.497872 C431.349669,218.520538 430.970028,218.983915 431.044159,219.532287" id="Fill-119" fill="#1E3F43"></path>
                        <path d="M429.048576,232.443771 C429.048576,232.443771 423.891742,233.134096 421.103232,232.401312 C421.103232,232.401312 422.914092,234.697759 425.734833,234.35223 C428.555573,234.006702 429.048576,232.443771 429.048576,232.443771" id="Fill-120" fill="#1E3F43"></path>
                        <path d="M421.103232,220.305987 C421.103232,220.305987 419.980581,218.661564 418.817336,218.832597 C417.65549,219.003629 416.956983,220.483296 416.956983,220.483296 L415.144224,220.040024 L416.90379,220.093373 C416.90379,220.093373 417.606497,218.551727 418.772542,218.499162 C420.431321,218.423845 421.103232,220.305987 421.103232,220.305987" id="Fill-121" fill="#1E3F43"></path>
                        <path d="M429.048576,220.483296 C429.048576,220.483296 429.730916,218.761826 430.955115,218.832475 C432.179313,218.902338 433.294566,220.30589 433.294566,220.30589 L435.007584,219.714012 L433.240094,219.916538 C433.240094,219.916538 432.101905,218.450972 430.907809,218.498071 C429.207693,218.564795 429.048576,220.483296 429.048576,220.483296" id="Fill-122" fill="#1E3F43"></path>
                        <path d="M425.918852,226.342054 C426.057499,226.386609 426.211451,226.420645 426.378008,226.442304 L426.505851,225.981276 C425.935058,225.906398 425.785607,225.674956 425.762199,225.494877 C425.727987,225.2393 425.927855,224.988675 426.128623,224.934837 C426.245663,224.903276 426.377108,224.952783 426.520256,225.081499 L427.06224,224.796219 C426.586879,224.367989 426.078206,224.444724 425.880139,224.497943 C425.373267,224.633467 425.023048,225.090163 425.082468,225.537576 C425.131085,225.901447 425.434488,226.186728 425.918852,226.342054" id="Fill-123" fill="#CC5B4B"></path>
                        <path d="M425.886949,207.320158 C425.886949,207.320158 429.132349,206.252821 430.485329,211.242557 C432.83208,219.894797 434.526747,233.961941 440.087607,240.910984 C444.125269,245.957493 446.582161,243.907349 446.582161,243.907349 C446.582161,243.907349 447.677311,238.911305 445.956361,233.917784 C444.23541,228.925525 446.420704,210.972569 440.087607,204.415892 C433.753258,197.857954 422.577718,202.050341 422.577718,202.050341 C422.577718,202.050341 417.194585,198.83193 411.941619,202.050341 C406.687401,205.270014 405.200499,219.720693 410.559852,226.137329 C410.559852,226.137329 410.285751,220.699715 412.632502,218.583966 C414.979253,216.466956 416.299691,204.6392 425.886949,207.320158" id="Fill-124" fill="#DC3F4E"></path>
                        <path d="M384.280955,148.9752 C384.280955,148.9752 383.539959,193.197351 381.267233,201.976977 C381.267233,201.976977 389.212847,229.75266 401.109585,239.834836 C401.109585,239.834836 402.963987,247.367421 392.680603,262.196352 C392.680603,262.196352 372.673727,225.967649 369.458496,205.23787 L378.446094,149.5019 L384.280955,148.9752" id="Fill-128" fill="#E88465"></path>
                        <path d="M408.115158,244.977461 C409.139663,248.591134 409.708975,261.293124 421.836349,267.812256 C433.96244,274.330114 446.941217,264.788336 450.467362,254.382946 C450.467362,254.382946 451.941931,252.171689 456.741335,257.543158 C456.741335,257.543158 481.962886,269.684691 485.210786,275.988557 C488.457404,282.291149 486.505843,306.409899 476.422351,306.769101 C466.33886,307.129577 454.157632,295.984128 450.952046,303.30828 C447.74646,310.632432 428.995064,336.789207 390.126691,315.749148 C390.126691,315.749148 385.237531,309.677108 385.237531,304.263604 C385.237531,298.850101 382.755125,263.154095 382.755125,263.154095 C382.755125,263.154095 368.427437,259.03219 372.024105,225.442993 C372.024105,225.442993 381.892181,230.870508 381.642145,212.953722 C381.642145,212.953722 389.783052,209.199935 392.479591,224.250748 C394.284977,234.333876 404.317179,241.706431 404.317179,241.706431 C404.317179,241.706431 406.554678,239.478615 408.115158,244.977461" id="Fill-129" fill="#0B7372"></path>
                        <path d="M491.128902,289.412203 C499.476975,285.681595 517.840989,269.505424 524.392704,260.123671 L520.460677,256.237344 C520.460677,256.237344 498.83328,271.887796 490.530116,274.673441 C482.2282,277.460417 477.839598,282.541922 478.85005,288.835909 C479.860501,295.129895 489.372464,290.197454 491.128902,289.412203" id="Fill-130" fill="#E88465"></path>
                        <path d="M533.428432,248.292 C529.321328,253.643953 523.998844,251.379428 522.542906,256.865456 C521.641132,260.262858 525.501381,261.719238 525.501381,261.719238 C529.306215,261.0464 535.359187,261.534731 538.176602,262.021831 C540.997796,262.496631 540.166551,261.326852 540.166551,261.326852 C540.424741,261.392045 540.664038,261.467078 540.904596,261.542111 C542.738371,262.090714 544.00413,262.763552 543.520497,261.372364 C542.985226,259.797898 537.856699,258.005714 537.856699,258.005714 C545.812717,258.834768 546.510459,260.774559 546.177961,259.307108 C545.727074,257.303355 538.962506,255.576363 538.759733,255.524701 C543.592286,255.224568 546.035642,256.252891 545.283743,255.004389 C544.520509,253.738666 535.946096,253.176533 532.782328,253.010476 C532.070733,252.971115 531.626143,252.957584 531.626143,252.957584 C535.268505,248.814772 533.428432,248.292 533.428432,248.292" id="Fill-131" fill="#E88465"></path>
                        <path d="M534.324384,250.3107 C533.353834,250.286615 532.747454,250.278336 532.747454,250.278336 C532.747454,250.278336 532.249296,251.654943 528.365376,252.25782 C528.365376,252.25782 532.958742,252.485874 534.324384,250.3107" id="Fill-132" fill="#E0674B"></path>
                        <path d="M534.324384,258.22368 C534.964312,258.351139 538.641454,259.046482 539.567151,259.989172 C539.817505,260.056056 540.04954,260.133036 540.282796,260.210016 C540.347521,258.722157 535.123073,258.277945 534.324384,258.22368" id="Fill-133" fill="#E0674B"></path>
                        <path d="M369.449041,256.468508 C368.88409,246.473598 338.153546,250.879089 338.153546,250.879089 C338.153546,250.879089 318.217595,236.707795 312.049796,241.241278 C309.866917,242.8463 308.863121,252.361239 308.478501,263.979089 C306.16195,268.142675 304.154358,274.416852 308.279255,280.115064 C308.349873,297.187942 309.126681,313.389192 309.126681,313.389192 C326.587189,326.765656 345.08428,320.151019 345.08428,320.151019 C345.08428,320.151019 352.445033,304.297907 359.076899,288.218249 C363.33925,284.720223 364.256034,279.642773 364.118579,275.481747 C367.344347,266.876832 369.624327,259.569759 369.449041,256.468508" id="Fill-135" fill="#173137"></path>
                        <path d="M362.492142,206.095012 C353.213262,190.490862 329.764216,192.405188 321.741932,202.579167 C312.039376,214.884627 317.196934,243.545233 317.196934,243.545233 C317.196934,243.545233 339.54285,225.19562 352.933872,250.278336 C352.933872,250.278336 372.870217,223.54886 362.492142,206.095012" id="Fill-136" fill="#F2B276"></path>
                        <path d="M335.366284,227.725227 C335.366284,227.725227 336.264764,238.583355 331.718112,248.261917 C331.718112,248.261917 335.555508,255.071813 345.843698,250.926769 C345.843698,250.926769 344.104961,241.686405 350.909061,230.714906 C355.466299,223.367454 335.366284,227.725227 335.366284,227.725227" id="Fill-143" fill="#E8795F"></path>
                        <path d="M355.511336,221.518549 C355.511336,221.518549 359.852671,218.410128 359.507244,222.965785 C359.107771,228.244446 354.243596,229.454369 353.658485,227.635795 C353.073374,225.818451 355.511336,221.518549 355.511336,221.518549" id="Fill-144" fill="#E88465"></path>
                        <path d="M327.41827,218.362822 C327.41827,218.362822 323.71327,214.289731 322.163189,218.223703 C320.367666,222.780398 325.494183,225.440219 326.949301,224.115277 C328.405881,222.790335 327.41827,218.362822 327.41827,218.362822" id="Fill-145" fill="#E88465"></path>
                        <path d="M339.171547,240.048997 C347.936201,241.67134 353.948351,236.900039 357.148406,219.844027 C358.797881,211.04458 355.304951,204.814683 345.489249,202.997105 C335.672279,201.179526 330.526072,205.811013 328.87533,214.6092 C325.438186,232.937391 330.119092,238.373751 339.171547,240.048997" id="Fill-146" fill="#EB8E71"></path>
                        <path d="M331.759884,221.057063 C331.602963,221.553932 331.901802,222.144705 332.427584,222.376133 C332.95274,222.608302 333.506031,222.393139 333.662953,221.89627 C333.819249,221.3994 333.52041,220.808628 332.995253,220.576459 C332.469471,220.34503 331.916181,220.559453 331.759884,221.057063" id="Fill-147" fill="#CC5B4B"></path>
                        <path d="M349.5998,225.301776 C349.547077,225.844761 349.947403,226.349669 350.493635,226.431155 C351.039868,226.51264 351.524794,226.13872 351.576904,225.595735 C351.629014,225.053511 351.229302,224.547842 350.683069,224.467118 C350.136837,224.385632 349.65191,224.759553 349.5998,225.301776" id="Fill-148" fill="#CC5B4B"></path>
                        <path d="M337.87234,212.415125 C338.060963,212.566162 338.338441,212.582776 338.54577,212.43778 C340.327552,211.191728 342.944886,211.727908 342.969828,211.733949 C343.266012,211.795874 343.55752,211.61463 343.622992,211.329171 C343.688465,211.043712 343.50296,210.761273 343.205217,210.696327 C343.078949,210.669141 340.079693,210.055932 337.903518,211.578382 C337.658776,211.749053 337.604216,212.079823 337.780367,212.318461 C337.806868,212.35471 337.839604,212.386428 337.87234,212.415125" id="Fill-149" fill="#F2B276"></path>
                        <path d="M347.827032,213.070495 C347.910583,213.104796 348.011541,213.12795 348.124683,213.137383 C348.154274,213.139098 351.106411,213.375776 352.443228,214.387663 C352.627737,214.52744 353.007198,214.566029 353.290923,214.475131 C353.572908,214.384233 353.652978,214.198148 353.468469,214.058371 C351.834002,212.819239 348.455406,212.552546 348.312673,212.541399 C347.978469,212.51653 347.668633,212.628867 347.616414,212.793513 C347.581601,212.901562 347.668633,213.005323 347.827032,213.070495" id="Fill-150" fill="#F2B276"></path>
                        <path d="M337.728944,217.401457 C337.55452,217.947476 337.834688,218.435651 338.35469,218.491587 C338.874691,218.54816 339.437208,218.151517 339.611632,217.606134 C339.786056,217.060116 339.505888,216.572576 338.985886,216.516004 C338.465885,216.459432 337.903368,216.855438 337.728944,217.401457" id="Fill-151" fill="#1E3F43"></path>
                        <path d="M349.64696,219.388139 C349.472536,219.93335 349.752704,220.421371 350.272706,220.477925 C350.792707,220.53448 351.355224,220.137963 351.529648,219.592752 C351.704072,219.046906 351.423904,218.558885 350.903902,218.502331 C350.383901,218.445776 349.821384,218.842293 349.64696,219.388139" id="Fill-152" fill="#1E3F43"></path>
                        <path d="M345.622464,229.383938 C345.622464,229.383938 340.152224,229.051174 337.67712,226.442304 C337.67712,226.442304 338.491837,232.134233 341.469638,232.387134 C344.44744,232.641699 345.622464,229.383938 345.622464,229.383938" id="Fill-153" fill="#1E3F43"></path>
                        <path d="M339.653574,218.49696 C339.653574,218.49696 339.304842,216.832122 338.036996,216.829884 C336.767672,216.827646 335.338758,218.091193 335.338758,218.091193 L333.704448,217.435551 L335.473227,217.725704 C335.473227,217.725704 336.937604,216.405469 338.152254,216.517354 C339.881136,216.675484 339.653574,218.49696 339.653574,218.49696" id="Fill-154" fill="#1E3F43"></path>
                        <path d="M347.6088,220.077849 C347.6088,220.077849 349.03818,218.592203 350.157675,218.820592 C351.278566,219.048238 351.686163,220.483296 351.686163,220.483296 L353.567808,220.169354 L351.813188,220.118766 C351.813188,220.118766 351.412571,218.624936 350.26795,218.508138 C348.636167,218.34224 347.6088,220.077849 347.6088,220.077849" id="Fill-155" fill="#1E3F43"></path>
                        <path d="M340.137985,222.28941 C340.243028,222.358007 340.365039,222.417873 340.503211,222.469632 L340.768241,222.043087 C340.297973,221.868478 340.247068,221.616542 340.286661,221.436944 C340.343222,221.18189 340.600173,220.973606 340.79329,220.956769 C340.905605,220.947415 341.002567,221.018506 341.083369,221.169418 L341.649792,220.988573 C341.380721,220.486571 340.913685,220.470358 340.724608,220.487195 C340.238988,220.528977 339.781648,220.911246 339.683069,221.357123 C339.603075,221.72006 339.770336,222.051817 340.137985,222.28941" id="Fill-156" fill="#CC5B4B"></path>
                        <path d="M328.721553,220.885282 C328.721553,220.885282 325.172054,209.952601 331.610307,200.982297 C338.049795,192.013298 355.42925,198.668937 358.618118,205.576398 C361.806986,212.483858 355.578689,226.442304 355.578689,226.442304 C355.578689,226.442304 360.390397,207.93412 350.705229,204.875735 C350.705229,204.875735 349.503537,209.508979 341.993271,212.800918 C334.607744,216.038056 330.182603,215.553986 330.182603,215.553986 L328.721553,220.885282" id="Fill-157" fill="#F2B276"></path>
                        <path d="M360.410333,250.278336 C360.410333,250.278336 371.286306,250.477122 397.943463,277.465109 C401.641049,281.209943 397.42661,292.944494 386.375494,285.70794 C374.206162,277.737977 366.132467,269.490207 363.595964,272.539907 C363.595964,272.539907 357.246748,257.090154 360.410333,250.278336" id="Fill-158" fill="#EB8E71"></path>
                        <path d="M401.205515,276.914836 C401.118845,268.001991 393.962937,245.619755 388.254037,236.373984 L383.362848,238.606188 C383.362848,238.606188 388.819275,263.783285 388.098283,272.32512 C387.376035,280.866955 390.149467,286.639726 396.034219,287.911235 C401.91897,289.182743 401.224356,278.790772 401.205515,276.914836" id="Fill-159" fill="#EB8E71"></path>
                        <path d="M377.40384,223.397677 C381.12373,229.599683 376.73644,233.879359 381.647546,237.544422 C384.688071,239.812637 387.684722,236.631814 387.684722,236.631814 C388.526284,232.635499 391.428543,226.915074 393.038545,224.358177 C394.637912,221.793298 393.135598,222.127211 393.135598,222.127211 C393.303112,221.902385 393.474615,221.698844 393.644789,221.493973 C394.92508,219.925512 396.103001,218.961022 394.516929,218.865238 C392.727447,218.746839 388.890562,223.031836 388.890562,223.031836 C392.890973,215.588632 395.111207,215.697719 393.510511,215.423671 C391.324843,215.045857 386.900328,220.95785 386.768709,221.134784 C388.393336,216.285726 390.395536,214.315505 388.846689,214.541661 C387.276571,214.770478 383.296103,222.929401 381.869569,225.954574 C381.546505,226.634374 381.35506,227.064071 381.35506,227.064071 C378.6602,221.810592 377.40384,223.397677 377.40384,223.397677" id="Fill-160" fill="#EB8E71"></path>
                        <path d="M381.79828,226.442304 C381.533449,227.16922 381.376512,227.6287 381.376512,227.6287 C381.376512,227.6287 383.102817,228.992913 382.981845,232.401312 C382.981845,232.401312 384.387737,229.042702 381.79828,226.442304" id="Fill-161" fill="#E0674B"></path>
                        <path d="M389.321856,226.442304 C389.497617,225.770992 390.488979,221.896305 391.077657,221.26404 C391.153499,221.010233 391.231146,220.780455 391.308192,220.549175 C390.662934,219.807278 389.494607,225.557734 389.321856,226.442304" id="Fill-162" fill="#E0674B"></path>
                        <path d="M313.615266,238.437814 C313.615266,238.437814 302.637864,236.033913 270.382518,258.003723 C265.907231,261.051086 267.685085,274.034484 280.237658,268.990574 C294.060126,263.435527 304.488283,256.622096 306.39125,260.310326 C306.39125,260.310326 315.363093,246.130815 313.615266,238.437814" id="Fill-163" fill="#EB8E71"></path>
                        <path d="M269.162462,257.675114 C271.063898,248.476957 282.448057,226.847594 289.772559,218.49696 L293.977728,221.839031 C293.977728,221.839031 283.643944,246.718314 282.588678,255.704915 C281.533411,264.690218 277.714643,270.072574 271.847705,270.141696 C265.981989,270.210151 268.76261,259.611569 269.162462,257.675114" id="Fill-164" fill="#EB8E71"></path>
                        <path d="M301.923072,211.436878 C296.652895,216.603986 300.320904,221.557417 294.357357,224.06845 C290.663667,225.623762 288.215474,221.995131 288.215474,221.995131 C288.209768,218.019437 286.419277,211.989849 285.289342,209.231468 C284.173673,206.467907 285.6774,207.086924 285.6774,207.086924 C285.551852,206.839576 285.416317,206.610359 285.282208,206.382436 C284.283528,204.631577 283.257741,203.477719 284.944084,203.703051 C286.848709,203.946514 289.938911,208.796343 289.938911,208.796343 C287.372303,200.90582 285.016845,200.566526 286.757402,200.624802 C289.137113,200.701208 292.484118,207.216426 292.583986,207.411973 C291.943405,202.467607 290.272755,200.190972 291.85067,200.715453 C293.449985,201.246409 295.838257,209.814225 296.671441,212.98183 C296.861191,213.695383 296.966765,214.142163 296.966765,214.142163 C300.951499,209.674363 301.923072,211.436878 301.923072,211.436878" id="Fill-165" fill="#EB8E71"></path>
                        <path d="M295.77995,212.537952 C295.898246,213.384629 295.964064,213.914763 295.964064,213.914763 C295.964064,213.914763 294.410214,214.858247 294.070448,218.49696 C294.070448,218.49696 293.377575,214.53863 295.77995,212.537952" id="Fill-166" fill="#E0674B"></path>
                        <path d="M286.032384,208.56528 C285.873543,207.911234 284.986815,204.143562 284.272847,203.338177 C284.200796,203.086824 284.123012,202.853894 284.046048,202.62228 C284.988452,202.273543 285.901381,207.729628 286.032384,208.56528" id="Fill-167" fill="#E0674B"></path>
                        <path d="M260.550427,325.759104 C260.550427,325.759104 242.205859,317.663098 229.510517,318.310778 C216.813835,318.958459 247.144575,278.154586 254.685367,282.36451 C262.226159,286.574433 263.90189,320.57766 260.550427,325.759104" id="Fill-179" fill="#173137"></path>
                        <path d="M214.524288,247.255521 C214.524288,247.255521 216.271892,243.129525 225.139221,242.379671 C234.005243,241.629817 241.810686,250.090569 240.112715,255.082797 C238.413438,260.076225 214.524288,247.255521 214.524288,247.255521" id="Fill-180" fill="#1A3F5A"></path>
                        <path d="M228.42864,208.0644 C228.42864,208.0644 227.833514,196.896574 217.510859,195.142632 C207.188204,193.38869 198.992619,195.939878 202.617589,210.928109 C206.24256,225.916339 203.878448,231.88867 197.10133,232.569837 C190.324211,233.251005 190.797033,225.223691 190.797033,225.223691 C190.797033,225.223691 189.378566,232.613207 196.786115,235.323845 C196.786115,235.323845 188.965005,235.961642 191.772938,240.904569 C194.579611,245.847496 203.215236,245.05025 206.620817,240.904569 C206.620817,240.904569 206.872989,244.273413 211.128389,243.066701 C211.128389,243.066701 209.406056,242.499061 209.55862,240.266772 C209.709923,238.034482 221.418262,241.807689 225.092406,227.836108 C228.767811,213.864526 221.423306,211.565906 221.423306,211.565906 L228.42864,208.0644" id="Fill-181" fill="#173137"></path>
                        <path d="M249.483409,254.260724 C243.415383,253.976021 243.175744,259.997362 246.282504,265.880003 C249.388042,271.762643 279.099726,298.365317 283.67367,293.352601 C285.440403,291.416866 280.346832,282.535114 280.346832,282.535114 C280.346832,282.535114 271.849396,275.157176 260.876087,262.760439 C255.833867,257.063951 252.647634,254.407942 249.483409,254.260724" id="Fill-182" fill="#E88465"></path>
                        <path d="M289.44351,285.199225 C291.194424,275.902605 288.629759,251.138144 284.80783,240.346656 L279.440673,241.66934 C279.440673,241.66934 279.723494,268.993079 277.237247,277.737928 C274.752286,286.482777 276.345078,293.059675 281.987341,295.587646 C287.629604,298.115617 289.075844,287.154554 289.44351,285.199225" id="Fill-183" fill="#BD6843"></path>
                        <path d="M274.114368,233.89735 C279.800971,237.675351 277.792826,243.103167 283.468126,244.235689 C284.639858,244.469224 285.56167,244.187977 286.269984,243.710862 C287.612514,242.805598 288.211567,241.136949 287.964159,239.537357 C287.388968,235.825901 287.545953,230.862645 287.842339,228.376622 C288.166355,225.541552 287.020997,226.436772 287.020997,226.436772 C287.072488,226.176869 287.135282,225.933289 287.198075,225.689709 C287.653958,223.832726 288.269337,222.534469 286.877827,223.095708 C285.30296,223.719725 283.765769,228.927816 283.765769,228.927816 C284.161369,220.961244 286.099185,220.153915 284.623531,220.570763 C282.60534,221.134512 281.227645,227.967308 281.186201,228.171965 C280.607243,223.379466 281.516496,220.888421 280.286994,221.709562 C279.03991,222.540747 278.950743,231.108736 278.959534,234.266487 C278.96079,234.977138 278.970837,235.420353 278.970837,235.420353 C274.542621,232.035345 274.114368,233.89735 274.114368,233.89735" id="Fill-184" fill="#BD6843"></path>
                        <path d="M280.073376,236.373984 C280.07409,236.712925 280.079804,236.924313 280.079804,236.924313 C280.079804,236.924313 281.39602,237.036296 282.058771,238.36032 C282.058771,238.36032 282.166611,236.751849 280.073376,236.373984" id="Fill-185" fill="#E0674B"></path>
                        <path d="M284.046048,232.401312 C284.154951,231.765893 284.737814,228.116736 285.816111,227.157001 C285.878999,226.908358 285.955691,226.675331 286.032384,226.442304 C284.222441,226.45912 284.055251,231.613344 284.046048,232.401312" id="Fill-186" fill="#E0674B"></path>
                        <path d="M240.346656,253.15602 C240.346656,253.15602 249.006519,249.562147 259.597072,255.935454 C270.187625,262.307468 276.526553,272.43495 276.526553,272.43495 C276.526553,272.43495 276.627965,253.437841 279.826954,250.278336 C279.826954,250.278336 283.785896,255.056377 288.699912,255.935454 C288.699912,255.935454 301.317433,282.25734 293.294287,298.622389 C285.27114,314.987438 261.522627,298.622389 261.522627,298.622389 L240.346656,253.15602" id="Fill-187" fill="#064847"></path>
                        <path d="M198.6336,313.152694 C198.6336,313.152694 204.772924,296.479612 201.641807,286.983294 C196.285883,270.743845 199.213391,257.022807 204.841207,252.968718 C213.946526,246.409048 233.000156,253.90783 233.000156,253.90783 C233.000156,253.90783 251.547246,251.875654 253.439325,257.695067 C255.330162,263.515764 259.764877,287.109022 250.926485,299.688244 C242.086852,312.267466 229.828069,331.718112 229.828069,331.718112 C229.828069,331.718112 203.599686,329.225361 198.6336,313.152694" id="Fill-188" fill="#CCD4D3"></path>
                        <path d="M238.36032,250.753837 C238.36032,250.753837 258.129711,285.700833 257.177856,329.731776 C257.177856,329.731776 266.168442,327.298806 267.860206,310.84238 C269.551969,294.385954 263.760884,262.859313 255.869373,254.583344 C255.869373,254.583344 250.210278,248.576426 238.36032,250.753837" id="Fill-190" fill="#0B7372"></path>
                        <path d="M218.78908,248.4579 C218.78908,248.4579 233.006178,301.286379 205.556055,321.786432 C205.556055,321.786432 194.034461,321.106275 185.782921,311.751894 C177.531381,302.398785 188.692353,252.112948 188.692353,252.112948 C188.692353,252.112948 203.384984,242.007216 218.78908,248.4579" id="Fill-191" fill="#0B7372"></path>
                        <path d="M222.469632,264.182688 C222.469632,264.182688 222.402984,249.534499 220.718943,245.670764 C219.034901,241.808201 214.524288,247.453124 214.524288,247.453124 C214.524288,247.453124 215.762029,254.250719 222.469632,264.182688" id="Fill-192" fill="#1A3F5A"></path>
                        <path d="M244.068958,264.182688 C244.068958,264.182688 245.612902,247.723501 241.032714,244.832239 C236.452526,241.940977 236.373984,252.216262 236.373984,252.216262 C236.373984,252.216262 240.396846,251.706512 244.068958,264.182688" id="Fill-193" fill="#1A3F5A"></path>
                        <path d="M229.091203,232.024333 C229.091203,232.024333 230.337525,242.322258 226.442304,251.691174 C226.442304,251.691174 232.004248,259.721154 237.310727,254.436964 C237.310727,254.436964 237.796855,244.998918 243.759358,234.321386 C247.751308,227.170689 229.091203,232.024333 229.091203,232.024333" id="Fill-194" fill="#9F5839"></path>
                        <path d="M218.40508,231.367412 C218.40508,231.367412 214.073889,228.37913 214.562765,232.988873 C215.129495,238.328835 219.906055,239.369866 220.41554,237.502502 C220.92388,235.636386 218.40508,231.367412 218.40508,231.367412" id="Fill-195" fill="#BD6843"></path>
                        <path d="M246.505954,226.385877 C246.505954,226.385877 250.040613,222.237525 251.791012,226.104781 C253.816706,230.584738 248.783387,233.367143 247.253812,232.090135 C245.722764,230.813128 246.505954,226.385877 246.505954,226.385877" id="Fill-196" fill="#BD6843"></path>
                        <path d="M235.533744,249.863578 C226.933799,251.797229 220.82285,247.24761 217.051757,230.325645 C215.105428,221.596519 218.333854,215.24795 227.965241,213.081405 C237.596628,210.914859 242.84658,215.356214 244.79291,224.08534 C248.845989,242.26871 244.416929,247.865723 235.533744,249.863578" id="Fill-197" fill="#BD6843"></path>
                        <path d="M244.268595,230.950693 C244.441312,231.437782 244.158684,232.037276 243.63865,232.290004 C243.117988,232.541998 242.555874,232.351717 242.383785,231.864628 C242.211068,231.378274 242.493068,230.778779 243.01373,230.526786 C243.534392,230.274058 244.095878,230.464339 244.268595,230.950693" id="Fill-198" fill="#7B4228"></path>
                        <path d="M226.434507,233.20385 C226.502658,233.742323 226.116468,234.264089 225.572485,234.368897 C225.028502,234.474466 224.531796,234.123584 224.463645,233.58511 C224.396107,233.046637 224.781684,232.524871 225.325667,232.420063 C225.870263,232.314494 226.366356,232.665376 226.434507,233.20385" id="Fill-199" fill="#7B4228"></path>
                        <path d="M239.799589,220.483296 C239.697156,220.483296 239.591619,220.452849 239.498498,220.388749 C237.677981,219.133999 235.096976,219.800635 235.06904,219.807045 C234.772605,219.88717 234.480825,219.702883 234.404777,219.401615 C234.33028,219.100347 234.505658,218.792669 234.797437,218.715749 C234.92315,218.6837 237.881296,217.919312 240.103785,219.451292 C240.355212,219.624361 240.421948,219.973704 240.25433,220.233308 C240.148793,220.395159 239.976519,220.483296 239.799589,220.483296" id="Fill-200" fill="#173137"></path>
                        <path d="M224.663149,222.469632 C224.627135,222.469632 224.58994,222.455624 224.556877,222.427609 C224.458281,222.34521 224.4264,222.168053 224.48603,222.030447 C225.009712,220.815068 226.147997,220.499481 226.196409,220.487121 C226.306814,220.462401 226.416627,220.559632 226.438472,220.717013 C226.460317,220.873571 226.386517,221.025184 226.274342,221.055672 C226.264305,221.058967 225.268306,221.338299 224.840858,222.32873 C224.802482,222.419369 224.733406,222.469632 224.663149,222.469632" id="Fill-201" fill="#173137"></path>
                        <path d="M240.274877,225.326792 C240.478984,225.87111 240.232981,226.367512 239.724863,226.434594 C239.21567,226.502314 238.637726,226.116436 238.432545,225.572118 C238.227364,225.027162 238.474441,224.531398 238.982559,224.463678 C239.490677,224.395958 240.069696,224.781836 240.274877,225.326792" id="Fill-202" fill="#1E3F43"></path>
                        <path d="M228.356262,227.312847 C228.561479,227.856995 228.315434,228.353244 227.806152,228.420943 C227.297944,228.488642 226.718824,228.102246 226.514682,227.558097 C226.309465,227.013949 226.55551,226.5177 227.064792,226.450001 C227.573,226.382302 228.151045,226.768698 228.356262,227.312847" id="Fill-203" fill="#1E3F43"></path>
                        <path d="M232.401312,238.483974 C232.401312,238.483974 236.784167,238.590378 240.265863,236.373984 C240.265863,236.373984 241.161054,241.826121 236.991851,242.313451 C234.092626,242.651815 232.401312,238.483974 232.401312,238.483974" id="Fill-204" fill="#1E3F43"></path>
                        <path d="M234.418604,226.442304 C234.418604,226.442304 234.649935,224.796317 235.930466,224.771322 C237.210997,224.746328 238.745246,225.965196 238.745246,225.965196 L240.346656,225.290334 L238.582568,225.607916 C238.582568,225.607916 237.009515,224.333912 235.791667,224.465503 C234.058921,224.652964 234.418604,226.442304 234.418604,226.442304" id="Fill-205" fill="#1E3F43"></path>
                        <path d="M230.414976,227.953157 C230.414976,227.953157 228.88258,226.517918 227.778024,226.763352 C226.67207,227.008786 226.361676,228.42864 226.361676,228.42864 L224.455968,228.155366 L226.209275,228.072578 C226.209275,228.072578 226.509882,226.594112 227.647994,226.457842 C229.268475,226.263692 230.414976,227.953157 230.414976,227.953157" id="Fill-206" fill="#1E3F43"></path>
                        <path d="M233.601694,232.401312 L233.319955,231.9814 C233.775686,231.792126 233.813996,231.537672 233.766906,231.358426 C233.699864,231.103972 233.436482,230.902164 233.244932,230.890256 C233.135588,230.885869 233.041409,230.959197 232.96878,231.11212 L232.401312,230.946662 C232.643942,230.433993 233.103663,230.406417 233.291223,230.416445 C233.772493,230.445275 234.240993,230.816301 234.359116,231.261282 C234.482825,231.727573 234.199491,232.153752 233.601694,232.401312" id="Fill-207" fill="#7B4228"></path>
                        <path d="M219.495689,237.032104 C219.495689,237.032104 218.379584,232.694466 218.020161,227.648534 C217.551018,221.086159 221.312985,214.956483 227.278155,213.049946 C229.254354,212.41754 231.555926,212.072712 234.177826,212.281739 C238.087345,212.591951 241.453315,215.294653 243.056218,219.07178 C244.365277,222.156589 245.888728,226.399699 246.91277,231.316487 C246.91277,231.316487 248.457661,225.982977 247.0124,217.783004 C245.567139,209.581699 239.240023,202.758374 224.4179,206.133423 C211.748535,209.017194 206.294125,225.105597 219.495689,237.032104" id="Fill-208" fill="#1E3F43"></path>
                        <path d="M238.36032,211.073171 C238.36032,211.073171 236.870921,222.960551 221.708679,224.455968 C221.708679,224.455968 230.893499,220.999451 230.893499,214.101359 C230.893499,214.101359 227.248729,222.933158 218.501282,221.90218 C218.501282,221.90218 217.688353,207.686383 238.36032,211.073171" id="Fill-209" fill="#1E3F43"></path>
                        <path d="M188.310161,256.237344 C196.499077,258.591936 202.028178,271.370085 200.304537,272.824245 C198.579602,274.278405 159.956058,281.480612 159.956058,281.480612 L183.481895,314.211682 L179.504459,319.800096 C179.504459,319.800096 142.812739,288.518198 143.017042,277.789092 C143.220052,267.059985 188.310161,256.237344 188.310161,256.237344" id="Fill-210" fill="#BD6843"></path>
                        <path d="M187.989469,252.264672 C187.989469,252.264672 201.968366,253.940727 202.596914,275.44988 C203.225461,296.960346 171.982878,290.084189 171.982878,290.084189 C171.982878,290.084189 179.619731,299.238836 177.253878,309.45004 C177.253878,309.45004 168.757172,309.383103 169.021162,313.835083 C169.021162,313.835083 155.922232,314.685579 143.118719,296.143975 C130.313949,277.601058 148.339435,256.866276 187.989469,252.264672" id="Fill-212" fill="#064847"></path>
                        <path d="M259.775825,273.048782 C260.771852,276.285906 259.996257,279.38714 258.042303,279.976442 C256.088348,280.564398 253.696251,278.417079 252.698863,275.17861 C251.702836,271.941487 252.478431,268.840253 254.432385,268.252296 C256.38634,267.66434 258.778437,269.811659 259.775825,273.048782" id="Fill-213" fill="#1A3F5A"></path>
                        <path d="M220.474516,276.321072 C220.298917,279.610437 217.492205,282.176548 214.204755,282.055607 C210.918743,281.933468 208.397021,279.168582 208.57406,275.879217 C208.749659,272.59105 211.55781,270.023741 214.843821,270.145879 C218.129833,270.268018 220.651555,273.032905 220.474516,276.321072" id="Fill-214" fill="#1A3F5A"></path>
                        <path d="M171.914541,267.948809 C168.679316,268.804876 165.569496,266.921814 164.967789,263.745392 C164.364877,260.56897 166.499186,257.299962 169.734412,256.443895 C172.969637,255.587828 176.079458,257.47089 176.68237,260.647312 C177.284076,263.823734 175.149767,267.092742 171.914541,267.948809" id="Fill-215" fill="#215586"></path>
                    </g>
                </g>
            </g>
        </g>
    </g>
</svg>