<svg width="76" height="68" viewBox="0 0 76 68" fill="none" xmlns="http://www.w3.org/2000/svg">
<rect width="76" height="68" rx="4" fill="#E4E4E4"/>
<g clip-path="url(#clip0)">
<path d="M35.095 42.9154L31.0887 46.9217C29.4277 48.5828 26.7379 48.5828 25.0783 46.9221C23.4184 45.2623 23.4184 42.5722 25.078 40.9126L33.0921 32.8984C34.7517 31.2387 37.4418 31.2387 39.1013 32.8984C39.6546 33.4516 40.5516 33.4516 41.1048 32.8984C41.6581 32.3451 41.6581 31.4481 41.1048 30.8949C38.3387 28.1288 33.8548 28.1288 31.0887 30.8949L23.0746 38.909C20.3085 41.6751 20.3085 46.159 23.0746 48.9251C25.8403 51.6927 30.3247 51.6927 33.0922 48.9251L37.0986 44.9189C37.6518 44.3655 37.6518 43.4686 37.0986 42.9154C36.5454 42.3621 35.6483 42.3621 35.095 42.9154Z" fill="black" fill-opacity="0.5"/>
<path d="M52.9241 19.0746C50.158 16.3085 45.6725 16.3085 42.9064 19.0746L38.0996 23.8814C37.5464 24.4346 37.5464 25.3316 38.0996 25.8849C38.6529 26.4381 39.5499 26.4381 40.1031 25.8849L44.9099 21.0781C46.5695 19.4184 49.261 19.4184 50.9206 21.0781C52.5801 22.7376 52.5801 25.4277 50.9206 27.0873L42.106 35.9019C40.4464 37.5615 37.7564 37.5615 36.0968 35.9019C35.5436 35.3487 34.6466 35.3487 34.0933 35.9019C33.5401 36.4551 33.5401 37.3521 34.0933 37.9054C36.8594 40.6714 41.3434 40.6714 44.1096 37.9054L52.9241 29.0908C55.6902 26.3247 55.6902 21.8407 52.9241 19.0746Z" fill="black" fill-opacity="0.5"/>
</g>
<defs>
<clipPath id="clip0">
<rect width="34" height="34" fill="white" transform="translate(21 17)"/>
</clipPath>
</defs>
</svg>
