<svg width="16" height="16" viewBox="0 0 16 16" fill="none" xmlns="http://www.w3.org/2000/svg">
<path d="M6.63296 12.1955L4.74761 14.0808C3.96598 14.8625 2.70019 14.8625 1.91921 14.081C1.13808 13.2999 1.13808 12.034 1.91906 11.253L5.69042 7.48159C6.4714 6.70059 7.73731 6.70059 8.51828 7.48159C8.77863 7.74194 9.20076 7.74194 9.4611 7.48159C9.72145 7.22125 9.72145 6.79912 9.4611 6.53877C8.15941 5.23708 6.0493 5.23708 4.74761 6.53877L0.976271 10.3101C-0.325424 11.6118 -0.325424 13.7219 0.976271 15.0236C2.27781 16.326 4.38807 16.326 5.69046 15.0236L7.57581 13.1383C7.83615 12.8779 7.83615 12.4558 7.57581 12.1955C7.31546 11.9351 6.89331 11.9351 6.63296 12.1955Z" fill="black"/>
<path d="M15.0231 0.976271C13.7214 -0.325424 11.6106 -0.325424 10.3089 0.976271L8.04689 3.23829C7.78655 3.49863 7.78655 3.92076 8.04689 4.18111C8.30724 4.44145 8.72936 4.44145 8.98971 4.18111L11.2517 1.91909C12.0327 1.13809 13.2993 1.13809 14.0803 1.91909C14.8612 2.70007 14.8612 3.96598 14.0803 4.74695L9.93225 8.89501C9.15124 9.67601 7.88536 9.67601 7.10439 8.89501C6.84404 8.63466 6.42191 8.63466 6.16157 8.89501C5.90122 9.15535 5.90122 9.57748 6.16157 9.83783C7.46326 11.1395 9.57337 11.1395 10.8751 9.83783L15.0231 5.6898C16.3248 4.38811 16.3248 2.27797 15.0231 0.976271Z" fill="black"/>
</svg>
