<?xml version="1.0" encoding="UTF-8" standalone="no"?>

<svg width="60px" height="28px" viewBox="0 0 60 28" version="1.1" xmlns="http://www.w3.org/2000/svg" xmlns:xlink="http://www.w3.org/1999/xlink">
    <!-- Generator: Sketch 48.2 (47327) - http://www.bohemiancoding.com/sketch -->
    <desc>Created with Sketch.</desc>
    <defs></defs>
    <g id="Empty-Worksheet-&amp;-Components" stroke="none" stroke-width="1" fill="none" fill-rule="evenodd">
        <g id="Desktop-Copy-4" transform="translate(-22.000000, -30.000000)" stroke="#FEFEFE" stroke-width="1.5">
            <g id="Page-1" transform="translate(23.000000, 30.000000)">
                <path d="M35.5,14.2545455 C35.5,17.0658901 33.2616826,19.3454545 30.4996518,19.3454545 C27.7383174,19.3454545 25.5,17.0658901 25.5,14.2545455 C25.5,11.4432008 27.7383174,9.16363636 30.4996518,9.16363636 C33.2616826,9.16363636 35.5,11.4432008 35.5,14.2545455 Z" id="Stroke-1"></path>
                <path d="M25.5017018,14.5333382 L25.5017018,0.0705671432" id="Stroke-3"></path>
                <path d="M39,0 L39,19.8545455" id="Stroke-5"></path>
                <path d="M12.5,14.2545455 L22.5,13.7454545" id="Stroke-7"></path>
                <path d="M22.5,14.7636364 C22.5,17.574981 20.2616826,19.8545455 17.4996518,19.8545455 C15.0837454,19.8545455 13.0675883,18.1095974 12.6016784,15.7896176 C12.5348214,15.4584958 12.5,15.1153203 12.5,14.7636364 C12.5,11.9522917 14.7383174,9.67272727 17.4996518,9.67272727 C19.4900411,9.67272727 21.2088237,10.8568245 22.0131973,12.5705748" id="Stroke-9" transform="translate(17.500000, 14.763636) rotate(23.000000) translate(-17.500000, -14.763636) "></path>
                <path d="M58,14.2545455 C58,17.0658901 55.7616826,19.3454545 52.9996518,19.3454545 C50.5837454,19.3454545 48.5675883,17.6005065 48.1016784,15.2805267 C48.0348214,14.9494049 48,14.6062294 48,14.2545455 C48,11.4432008 50.2383174,9.16363636 52.9996518,9.16363636 C54.9900411,9.16363636 56.7088237,10.3477336 57.5131973,12.0614839 C57.8251967,12.7258546 58,13.4696379 58,14.2545455 Z" id="Stroke-13"></path>
                <path d="M10,14.7636364 C10,17.574981 7.76168257,19.8545455 4.99965179,19.8545455 C2.58374539,19.8545455 0.567588272,18.1095974 0.10167839,15.7896176 C0.0348213664,15.4584958 0,15.1153203 0,14.7636364 C0,14.7076222 0.000696427328,14.652317 0.00278570931,14.5963029 C0.089142698,11.8622436 2.29333519,9.67272727 4.99965179,9.67272727 C6.99004109,9.67272727 8.70882373,10.8568245 9.5131973,12.5705748 C9.82519674,13.2349456 10,13.9787288 10,14.7636364 Z" id="Stroke-15"></path>
                <polyline id="Stroke-17" points="0.021 14.7636364 0 15.0708891 0.15 28"></polyline>
                <path d="M44,9.67272727 L44,19.8545455" id="Stroke-19"></path>
            </g>
        </g>
    </g>
</svg>
