<svg width="30" height="30" viewBox="0 0 30 30" fill="none" xmlns="http://www.w3.org/2000/svg">
<path d="M13 8C13 6.89543 13.8954 6 15 6C16.1046 6 17 6.89543 17 8C17 9.10457 16.1046 10 15 10C13.8954 10 13 9.10457 13 8Z" fill="black"/>
<path d="M13 15C13 13.8954 13.8954 13 15 13C16.1046 13 17 13.8954 17 15C17 16.1046 16.1046 17 15 17C13.8954 17 13 16.1046 13 15Z" fill="black"/>
<path d="M13 22C13 20.8954 13.8954 20 15 20C16.1046 20 17 20.8954 17 22C17 23.1046 16.1046 24 15 24C13.8954 24 13 23.1046 13 22Z" fill="black"/>
</svg>
