<svg width="12" height="16" viewBox="0 0 12 16" fill="none" xmlns="http://www.w3.org/2000/svg">
<path d="M11.286 2.45925L8.92256 0.0967501C8.89216 0.0661741 8.85602 0.0418921 8.81623 0.0252901C8.77643 0.00868907 8.73375 9.50552e-05 8.69063 5.51747e-08H0.328125C0.285028 -2.49448e-05 0.242349 0.00844605 0.202528 0.024927C0.162706 0.041408 0.126524 0.065577 0.09605 0.096051C0.065576 0.126525 0.041408 0.162707 0.024927 0.202528C0.00844605 0.242349 -2.49448e-05 0.285028 5.51746e-08 0.328125V14.7657C-2.49448e-05 14.8087 0.00844605 14.8514 0.024927 14.8912C0.041408 14.9311 0.065576 14.9673 0.09605 14.9977C0.126524 15.0282 0.162706 15.0524 0.202528 15.0688C0.242349 15.0853 0.285028 15.0938 0.328125 15.0938H11.0531C11.0962 15.0938 11.1389 15.0853 11.1787 15.0688C11.2185 15.0524 11.2547 15.0282 11.2852 14.9977C11.3157 14.9673 11.3398 14.9311 11.3563 14.8912C11.3728 14.8514 11.3813 14.8087 11.3812 14.7657V2.69062C11.3813 2.60395 11.347 2.52077 11.286 2.45925ZM9.01875 1.12013L10.262 2.36326H9.01875V1.12013ZM0.65625 14.4375V0.656255H8.3625V2.69062C8.36238 2.73378 8.37078 2.77654 8.38721 2.81645C8.40365 2.85636 8.4278 2.89264 8.45829 2.92319C8.48877 2.95374 8.52499 2.97797 8.56486 2.9945C8.60473 3.01102 8.64747 3.01953 8.69063 3.01951H10.7257V14.4383L0.65625 14.4375Z" fill="#00151E"/>
<path d="M2.59717 4.71875H5.69092C5.77794 4.71875 5.8614 4.68418 5.92294 4.62264C5.98447 4.5611 6.01904 4.47765 6.01904 4.39062C6.01904 4.3036 5.98447 4.22015 5.92294 4.15861C5.8614 4.09707 5.77794 4.0625 5.69092 4.0625H2.59717C2.51015 4.0625 2.42669 4.09707 2.36515 4.15861C2.30361 4.22015 2.26904 4.3036 2.26904 4.39062C2.26904 4.47765 2.30361 4.5611 2.36515 4.62264C2.42669 4.68418 2.51015 4.71875 2.59717 4.71875Z" fill="#00151E"/>
<path d="M8.78467 5.64062H2.59717C2.51015 5.64062 2.42669 5.67519 2.36515 5.73673C2.30361 5.79826 2.26904 5.88172 2.26904 5.96875C2.26904 6.05577 2.30361 6.13924 2.36515 6.20077C2.42669 6.26231 2.51015 6.29688 2.59717 6.29688H8.78467C8.87169 6.29688 8.95515 6.26231 9.01669 6.20077C9.07822 6.13924 9.1128 6.05577 9.1128 5.96875C9.1128 5.88172 9.07822 5.79826 9.01669 5.73673C8.95515 5.67519 8.87169 5.64062 8.78467 5.64062Z" fill="#00151E"/>
<path d="M8.78467 7.21875H2.59717C2.51015 7.21875 2.42669 7.25332 2.36515 7.31486C2.30361 7.3764 2.26904 7.45985 2.26904 7.54688C2.26904 7.6339 2.30361 7.71736 2.36515 7.7789C2.42669 7.84043 2.51015 7.875 2.59717 7.875H8.78467C8.87169 7.875 8.95515 7.84043 9.01669 7.7789C9.07822 7.71736 9.1128 7.6339 9.1128 7.54688C9.1128 7.45985 9.07822 7.3764 9.01669 7.31486C8.95515 7.25332 8.87169 7.21875 8.78467 7.21875Z" fill="#00151E"/>
<path d="M8.78467 8.79688H2.59717C2.51015 8.79688 2.42669 8.83145 2.36515 8.89299C2.30361 8.95452 2.26904 9.03798 2.26904 9.125C2.26904 9.21203 2.30361 9.29548 2.36515 9.35701C2.42669 9.41855 2.51015 9.45312 2.59717 9.45312H8.78467C8.87169 9.45312 8.95515 9.41855 9.01669 9.35701C9.07822 9.29548 9.1128 9.21203 9.1128 9.125C9.1128 9.03798 9.07822 8.95452 9.01669 8.89299C8.95515 8.83145 8.87169 8.79688 8.78467 8.79688Z" fill="#00151E"/>
<path d="M8.78467 10.375H2.59717C2.51015 10.375 2.42669 10.4096 2.36515 10.4711C2.30361 10.5327 2.26904 10.6161 2.26904 10.7031C2.26904 10.7902 2.30361 10.8736 2.36515 10.9352C2.42669 10.9967 2.51015 11.0313 2.59717 11.0313H8.78467C8.87169 11.0313 8.95515 10.9967 9.01669 10.9352C9.07822 10.8736 9.1128 10.7902 9.1128 10.7031C9.1128 10.6161 9.07822 10.5327 9.01669 10.4711C8.95515 10.4096 8.87169 10.375 8.78467 10.375Z" fill="#00151E"/>
</svg>
