<svg width="30" height="30" viewBox="0 0 140 140" fill="none" xmlns="http://www.w3.org/2000/svg">
<path fill-rule="evenodd" clip-rule="evenodd" d="M115.658 47.8037L117.906 53.2424C135.998 59.825 135.998 60.5876 136 62.7725V76.6392C136 78.7642 136 79.5107 117.963 86.6233L115.739 92.0476C123.833 109.457 123.302 109.997 121.786 111.559L111.126 122.208L109.806 122.246C108.217 122.246 102.305 120.035 92.2139 115.681L86.7075 117.953C80.0918 136 79.3394 136 77.2173 136H63.3413C61.2539 136 60.5234 136.004 53.4111 118.017L47.9185 115.738C32.9473 122.672 31.1758 122.672 30.584 122.672H29.4395L28.4609 121.813L18.626 111.996C17.1304 110.47 16.6133 109.938 24.311 92.1899L22.0713 86.7798C4 80.1738 4 79.4062 4 77.2288V63.3464C4 61.1724 4 60.4832 22.0107 53.3779L24.251 47.958C16.1104 30.4758 16.6709 29.9326 18.2759 28.3923L28.8545 17.8081L30.166 17.7666C31.7651 17.7666 37.6904 19.9705 47.7935 24.3237L53.272 22.0537C59.8677 3.99756 60.6763 4 62.7563 4H76.6304C78.7124 4 79.4419 4 86.5532 21.9897L92.0557 24.2537C107.006 17.334 108.8 17.334 109.4 17.334H110.54L111.516 18.1731L121.351 27.9788C122.846 29.519 123.356 30.0466 115.658 47.8037ZM46.9141 69.989C46.9141 82.7266 57.2739 93.0933 69.9971 93.0933C82.7109 93.0933 93.0488 82.7266 93.0513 69.989C93.0513 57.2629 82.7134 46.9041 69.9971 46.9041C57.2744 46.9041 46.9141 57.2607 46.9141 69.989Z" fill="#009887"/>
<path d="M117.906 53.2424L116.057 54.0064L116.394 54.8207L117.222 55.1219L117.906 53.2424ZM115.658 47.8037L113.823 47.0081L113.486 47.7851L113.809 48.5677L115.658 47.8037ZM136 62.7725H138V62.7707L136 62.7725ZM117.963 86.6233L117.229 84.7627L116.436 85.0755L116.112 85.8645L117.963 86.6233ZM115.739 92.0476L113.888 91.2889L113.557 92.0979L113.925 92.8908L115.739 92.0476ZM121.786 111.559L123.2 112.974L123.221 112.952L121.786 111.559ZM111.126 122.208L111.184 124.207L111.978 124.184L112.54 123.623L111.126 122.208ZM109.806 122.246V124.246H109.834L109.863 124.245L109.806 122.246ZM92.2139 115.681L93.0063 113.844L92.2312 113.51L91.451 113.832L92.2139 115.681ZM86.7075 117.953L85.9446 116.104L85.1322 116.439L84.8297 117.265L86.7075 117.953ZM53.4111 118.017L55.271 117.282L54.9597 116.494L54.1778 116.17L53.4111 118.017ZM47.9185 115.738L48.6851 113.89L47.8744 113.554L47.0779 113.923L47.9185 115.738ZM29.4395 122.672L28.1207 124.175L28.6867 124.672H29.4395V122.672ZM28.4609 121.813L27.048 123.229L27.0937 123.275L27.1422 123.317L28.4609 121.813ZM18.626 111.996L17.1977 113.396L17.213 113.411L18.626 111.996ZM24.311 92.1899L26.1459 92.9858L26.4832 92.2081L26.1589 91.4249L24.311 92.1899ZM22.0713 86.7798L23.9192 86.0148L23.5831 85.203L22.7579 84.9014L22.0713 86.7798ZM22.0107 53.3779L22.7447 55.2384L23.5347 54.9267L23.8591 54.1419L22.0107 53.3779ZM24.251 47.958L26.0993 48.722L26.4349 47.9101L26.064 47.1137L24.251 47.958ZM18.2759 28.3923L19.661 29.8356L19.6905 29.8062L18.2759 28.3923ZM28.8545 17.8081L28.7912 15.8091L27.9997 15.8342L27.4399 16.3943L28.8545 17.8081ZM30.166 17.7666V15.7666H30.1344L30.1028 15.7676L30.166 17.7666ZM47.7935 24.3237L47.002 26.1605L47.7782 26.4949L48.559 26.1714L47.7935 24.3237ZM53.272 22.0537L54.0376 23.9014L54.8491 23.5651L55.1506 22.7399L53.272 22.0537ZM86.5532 21.9897L84.6933 22.725L85.0059 23.5158L85.7922 23.8393L86.5532 21.9897ZM92.0557 24.2537L91.2947 26.1032L92.1028 26.4357L92.8957 26.0687L92.0557 24.2537ZM110.54 17.334L111.843 15.8174L111.281 15.334H110.54V17.334ZM111.516 18.1731L112.928 16.7567L112.875 16.7046L112.819 16.6565L111.516 18.1731ZM121.351 27.9788L122.787 26.5858L122.763 26.5624L121.351 27.9788ZM93.0513 69.989L95.0513 69.9894V69.989H93.0513ZM119.754 52.4784L117.506 47.0397L113.809 48.5677L116.057 54.0064L119.754 52.4784ZM138 62.7707C138 62.2759 138.035 61.2855 137.441 60.2742C136.885 59.3289 135.941 58.6093 134.726 57.9182C132.286 56.5307 127.586 54.6363 118.59 51.363L117.222 55.1219C126.317 58.4311 130.663 60.2093 132.748 61.395C133.795 61.9905 133.981 62.2826 133.992 62.3005C133.992 62.3009 133.991 62.2986 133.989 62.2939C133.986 62.2893 133.985 62.2844 133.983 62.28C133.98 62.2701 133.982 62.2721 133.985 62.2952C133.996 62.3692 134 62.4711 134 62.7743L138 62.7707ZM138 76.6392V62.7725H134V76.6392H138ZM118.697 88.4839C127.669 84.9459 132.346 82.9209 134.768 81.4797C135.972 80.7634 136.898 80.0362 137.443 79.1082C138.034 78.1012 138 77.1292 138 76.6392H134C134 76.9347 133.996 77.0274 133.986 77.0933C133.984 77.1125 133.982 77.112 133.986 77.101C133.99 77.0891 133.994 77.0816 133.994 77.0827C133.975 77.1146 133.773 77.417 132.723 78.0421C130.636 79.2836 126.294 81.1881 117.229 84.7627L118.697 88.4839ZM117.589 92.8064L119.813 87.382L116.112 85.8645L113.888 91.2889L117.589 92.8064ZM123.221 112.952C123.566 112.597 124.274 111.918 124.559 110.788C124.824 109.732 124.665 108.562 124.295 107.216C123.552 104.514 121.578 99.8622 117.552 91.2044L113.925 92.8908C117.994 101.643 119.802 105.965 120.438 108.277C120.757 109.437 120.687 109.783 120.68 109.811C120.679 109.812 120.681 109.805 120.686 109.796C120.69 109.788 120.689 109.792 120.675 109.812C120.63 109.873 120.562 109.949 120.351 110.166L123.221 112.952ZM112.54 123.623L123.2 112.974L120.373 110.144L109.713 120.793L112.54 123.623ZM109.863 124.245L111.184 124.207L111.069 120.209L109.748 120.247L109.863 124.245ZM91.4215 117.517C96.4785 119.699 100.515 121.356 103.499 122.47C104.989 123.026 106.241 123.457 107.241 123.751C108.169 124.024 109.088 124.246 109.806 124.246V120.246C109.806 120.246 109.693 120.242 109.413 120.184C109.15 120.13 108.806 120.042 108.37 119.914C107.499 119.658 106.346 119.263 104.898 118.723C102.006 117.643 98.0405 116.017 93.0063 113.844L91.4215 117.517ZM87.4704 119.802L92.9768 117.529L91.451 113.832L85.9446 116.104L87.4704 119.802ZM77.2173 138C77.7007 138 78.684 138.036 79.6903 137.435C80.6209 136.88 81.3315 135.939 82.0167 134.731C83.3956 132.302 85.295 127.617 88.5853 118.641L84.8297 117.265C81.5043 126.336 79.7196 130.675 78.5379 132.757C78.2532 133.259 78.0339 133.573 77.8709 133.769C77.7116 133.96 77.6344 134.004 77.6398 134.001C77.7015 133.964 77.7949 134 77.2173 134V138ZM63.3413 138H77.2173V134H63.3413V138ZM51.5512 118.753C55.0892 127.7 57.1096 132.361 58.5403 134.774C59.2503 135.971 59.9702 136.895 60.889 137.44C61.8919 138.035 62.8597 138 63.3413 138V134C63.0497 134 62.9633 133.996 62.9034 133.987C62.8875 133.985 62.8909 133.984 62.9047 133.989C62.911 133.991 62.9171 133.993 62.9225 133.996C62.9278 133.998 62.9303 134 62.9296 133.999C62.902 133.983 62.6034 133.784 61.9809 132.734C60.7464 130.652 58.8453 126.321 55.271 117.282L51.5512 118.753ZM47.1518 117.585L52.6445 119.864L54.1778 116.17L48.6851 113.89L47.1518 117.585ZM30.584 124.672C31.2218 124.672 32.0682 124.582 34.5413 123.685C37.011 122.789 41.2582 121.026 48.759 117.552L47.0779 113.923C39.6076 117.383 35.4834 119.088 33.1766 119.925C32.0224 120.344 31.3663 120.529 30.9993 120.612C30.6842 120.682 30.6122 120.672 30.584 120.672V124.672ZM29.4395 124.672H30.584V120.672H29.4395V124.672ZM27.1422 123.317L28.1207 124.175L30.7582 121.168L29.7796 120.31L27.1422 123.317ZM17.213 113.411L27.048 123.229L29.8739 120.398L20.0389 110.58L17.213 113.411ZM22.4762 91.3941C18.6472 100.222 16.7765 104.953 16.0826 107.684C15.7374 109.042 15.5972 110.208 15.8631 111.249C16.1512 112.376 16.8515 113.043 17.1978 113.396L20.0542 110.596C19.8469 110.384 19.7826 110.313 19.7416 110.257C19.7292 110.24 19.7293 110.238 19.7334 110.246C19.7379 110.255 19.7394 110.261 19.7385 110.258C19.7274 110.215 19.6586 109.852 19.9594 108.669C20.5575 106.315 22.2771 101.905 26.1459 92.9858L22.4762 91.3941ZM20.2234 87.5448L22.4631 92.955L26.1589 91.4249L23.9192 86.0148L20.2234 87.5448ZM2 77.2288C2 77.7226 1.96408 78.7114 2.55724 79.7227C3.11119 80.6671 4.05385 81.3876 5.2672 82.0804C7.70332 83.4714 12.398 85.3732 21.3846 88.6582L22.7579 84.9014C13.6733 81.5805 9.33232 79.7954 7.25062 78.6068C6.20506 78.0098 6.01826 77.7172 6.00749 77.6989C6.00725 77.6985 6.00862 77.7008 6.01072 77.7054C6.01284 77.7101 6.01476 77.715 6.01625 77.7195C6.01959 77.7295 6.01772 77.7278 6.01441 77.7051C6.00374 77.6319 6 77.5309 6 77.2288H2ZM2 63.3464V77.2288H6V63.3464H2ZM21.2768 51.5175C12.3208 55.0506 7.65046 57.0595 5.23282 58.4901C4.03096 59.2013 3.10119 59.9269 2.55483 60.8614C1.96488 61.8705 2 62.8501 2 63.3464H6C6 63.0445 6.00377 62.9456 6.01417 62.8744C6.01733 62.8528 6.01902 62.8517 6.01563 62.8619C6.01187 62.8731 6.00776 62.8807 6.008 62.8803C6.02448 62.8521 6.22038 62.5536 7.26986 61.9326C9.35491 60.6988 13.6899 58.8105 22.7447 55.2384L21.2768 51.5175ZM22.4026 47.194L20.1624 52.614L23.8591 54.1419L26.0993 48.722L22.4026 47.194ZM16.891 26.9493C16.5306 27.2952 15.7793 27.9648 15.4614 29.1027C15.1621 30.1739 15.3131 31.3631 15.6776 32.717C16.4089 35.4329 18.3904 40.1102 22.4379 48.8023L26.064 47.1137C21.9709 38.3237 20.1624 33.9882 19.54 31.677C19.3904 31.1214 19.328 30.7467 19.3088 30.4969C19.2901 30.2542 19.3157 30.1722 19.3139 30.179C19.2981 30.2355 19.2187 30.2596 19.6607 29.8353L16.891 26.9493ZM27.4399 16.3943L16.8613 26.9785L19.6905 29.8062L30.2691 19.2219L27.4399 16.3943ZM30.1028 15.7676L28.7912 15.8091L28.9178 19.8071L30.2293 19.7656L30.1028 15.7676ZM48.5849 22.487C43.5215 20.3052 39.4787 18.6506 36.488 17.5382C34.9946 16.9827 33.7388 16.553 32.736 16.2595C31.8035 15.9866 30.884 15.7666 30.166 15.7666V19.7666C30.157 19.7666 30.185 19.7663 30.2613 19.7761C30.3346 19.7855 30.4349 19.802 30.5658 19.8289C30.8295 19.8831 31.1755 19.9706 31.6123 20.0984C32.4861 20.3542 33.6428 20.7476 35.0935 21.2872C37.991 22.365 41.9624 23.989 47.002 26.1605L48.5849 22.487ZM52.5064 20.206L47.0279 22.4761L48.559 26.1714L54.0376 23.9014L52.5064 20.206ZM62.7563 2C62.2789 2 61.3022 1.96464 60.2979 2.56527C59.3718 3.11908 58.6594 4.05634 57.9701 5.26512C56.5832 7.69747 54.6747 12.3847 51.3934 21.3675L55.1506 22.7399C58.4649 13.6666 60.2586 9.32695 61.4449 7.24648C61.7309 6.74498 61.9515 6.42988 62.1157 6.23323C62.2763 6.0408 62.3549 5.99585 62.3509 5.99822C62.2893 6.03505 62.1937 6 62.7563 6V2ZM76.6304 2H62.7563V6H76.6304V2ZM88.4132 21.2545C84.8756 12.3054 82.856 7.6434 81.4267 5.2297C80.7176 4.03217 79.999 3.1082 79.082 2.56245C78.0795 1.96579 77.1122 2 76.6304 2V6C76.9208 6 77.0061 6.00396 77.0647 6.01279C77.0801 6.0151 77.076 6.01556 77.0619 6.0107C77.0554 6.00849 77.0491 6.00595 77.0436 6.00341C77.0382 6.0009 77.0356 5.99934 77.0363 5.99973C77.0639 6.01616 77.3624 6.21655 77.9849 7.26774C79.2187 9.35148 81.1195 13.6843 84.6933 22.725L88.4132 21.2545ZM92.8167 22.4041L87.3142 20.1402L85.7922 23.8393L91.2947 26.1032L92.8167 22.4041ZM109.4 15.334C108.761 15.334 107.909 15.4214 105.429 16.3181C102.954 17.2128 98.7063 18.9716 91.2156 22.4387L92.8957 26.0687C100.355 22.616 104.479 20.915 106.789 20.0798C107.945 19.662 108.604 19.4766 108.973 19.3944C109.292 19.3236 109.368 19.334 109.4 19.334V15.334ZM110.54 15.334H109.4V19.334H110.54V15.334ZM112.819 16.6565L111.843 15.8174L109.236 18.8506L110.212 19.6897L112.819 16.6565ZM122.763 26.5624L112.928 16.7567L110.104 19.5895L119.939 29.3951L122.763 26.5624ZM117.493 48.5993C121.322 39.7668 123.194 35.0353 123.89 32.3035C124.236 30.9439 124.377 29.7782 124.113 28.7377C123.828 27.612 123.132 26.9423 122.786 26.586L119.916 29.3715C120.123 29.5851 120.188 29.6576 120.23 29.7157C120.243 29.7337 120.244 29.7369 120.24 29.7296C120.236 29.7213 120.235 29.7162 120.236 29.7205C120.248 29.7671 120.315 30.1319 120.014 31.3164C119.414 33.6727 117.692 38.0835 113.823 47.0081L117.493 48.5993ZM69.9971 91.0933C58.3801 91.0933 48.9141 81.6236 48.9141 69.989H44.9141C44.9141 83.8296 56.1678 95.0933 69.9971 95.0933V91.0933ZM91.0513 69.9886C91.049 81.6266 81.6017 91.0933 69.9971 91.0933V95.0933C83.8202 95.0933 95.0486 83.8266 95.0513 69.9894L91.0513 69.9886ZM69.9971 48.9041C81.6059 48.9041 91.0513 58.3646 91.0513 69.989H95.0513C95.0513 56.1613 83.8209 44.9041 69.9971 44.9041V48.9041ZM48.9141 69.989C48.9141 58.3654 58.3789 48.9041 69.9971 48.9041V44.9041C56.1699 44.9041 44.9141 56.1561 44.9141 69.989H48.9141Z" fill="none"/>
</svg>
