<svg width="30" height="30" viewBox="0 0 140 140" fill="none" xmlns="http://www.w3.org/2000/svg">
<path fill-rule="evenodd" clip-rule="evenodd" d="M115.658 47.8037L117.906 53.2424C135.998 59.825 135.998 60.5876 136 62.7725V76.6392C136 78.7642 136 79.5107 117.963 86.6233L115.739 92.0476C123.833 109.457 123.302 109.997 121.786 111.559L111.126 122.208L109.806 122.246C108.217 122.246 102.305 120.035 92.2139 115.681L86.7075 117.953C80.0918 136 79.3394 136 77.2173 136H63.3413C61.2539 136 60.5234 136.004 53.4111 118.017L47.9185 115.738C32.9473 122.672 31.1758 122.672 30.584 122.672H29.4395L28.4609 121.813L18.626 111.996C17.1304 110.47 16.6133 109.938 24.311 92.1899L22.0713 86.7798C4 80.1738 4 79.4062 4 77.2288V63.3464C4 61.1724 4 60.4832 22.0107 53.3779L24.251 47.958C16.1104 30.4758 16.6709 29.9326 18.2759 28.3923L28.8545 17.8081L30.166 17.7666C31.7651 17.7666 37.6904 19.9705 47.7935 24.3237L53.272 22.0537C59.8677 3.99756 60.6763 4 62.7563 4H76.6304C78.7124 4 79.4419 4 86.5532 21.9897L92.0557 24.2537C107.006 17.334 108.8 17.334 109.4 17.334H110.54L111.516 18.1731L121.351 27.9788C122.846 29.519 123.356 30.0466 115.658 47.8037ZM46.9141 69.989C46.9141 82.7266 57.2739 93.0933 69.9971 93.0933C82.7109 93.0933 93.0488 82.7266 93.0513 69.989C93.0513 57.2629 82.7134 46.9041 69.9971 46.9041C57.2744 46.9041 46.9141 57.2607 46.9141 69.989Z" fill="#009887"/>
</svg>
