<svg width="14" height="16" viewBox="0 0 14 16" fill="none" xmlns="http://www.w3.org/2000/svg">
<path d="M1.24984 18.75C1.24984 19.7114 1.63176 20.6334 2.31158 21.3133C2.99139 21.9931 3.91343 22.375 4.87484 22.375H12.1248C13.0862 22.375 14.0083 21.9931 14.6881 21.3133C15.3679 20.6334 15.7498 19.7114 15.7498 18.75V6.66667H1.24984V18.75ZM3.6665 10.8958C3.6665 10.7356 3.73016 10.5819 3.84346 10.4686C3.95676 10.3553 4.11044 10.2917 4.27067 10.2917C4.43091 10.2917 4.58458 10.3553 4.69788 10.4686C4.81118 10.5819 4.87484 10.7356 4.87484 10.8958V12.3463C5.36283 11.5348 6.10923 10.9107 6.99433 10.5741C7.87943 10.2375 8.85192 10.2079 9.75583 10.4902C10.6597 10.7724 11.4427 11.35 11.979 12.1303C12.5154 12.9107 12.7742 13.8486 12.7138 14.7936C12.6534 15.7387 12.2773 16.636 11.6459 17.3417C11.0146 18.0475 10.1645 18.5207 9.23197 18.6855C8.29949 18.8503 7.33867 18.6972 6.50363 18.2506C5.66859 17.8041 5.00772 17.09 4.62703 16.223C4.56356 16.0764 4.56067 15.9107 4.61898 15.762C4.6773 15.6133 4.79208 15.4937 4.93827 15.4293C5.08446 15.3649 5.25018 15.361 5.39924 15.4184C5.5483 15.4758 5.6686 15.5899 5.73387 15.7357C5.99985 16.345 6.45915 16.8498 7.04076 17.1719C7.62238 17.494 8.29391 17.6156 8.95155 17.5178C9.60918 17.42 10.2163 17.1083 10.679 16.6309C11.1417 16.1535 11.4343 15.5369 11.5115 14.8765C11.5887 14.2162 11.4461 13.5488 11.106 12.9775C10.7658 12.4063 10.2469 11.963 9.62958 11.7162C9.01222 11.4694 8.33075 11.4328 7.69052 11.6122C7.0503 11.7915 6.48699 12.1767 6.08767 12.7083H6.68734C6.84757 12.7083 7.00124 12.772 7.11455 12.8853C7.22785 12.9986 7.2915 13.1523 7.2915 13.3125C7.2915 13.4727 7.22785 13.6264 7.11455 13.7397C7.00124 13.853 6.84757 13.9167 6.68734 13.9167H4.27067C4.19132 13.9167 4.11273 13.9011 4.03941 13.8708C3.96609 13.8404 3.89947 13.7959 3.84336 13.7398C3.78725 13.6837 3.74275 13.6171 3.7124 13.5438C3.68205 13.4704 3.66646 13.3919 3.6665 13.3125V10.8958ZM16.9582 3.64591C16.9582 3.80613 16.8945 3.95979 16.7812 4.07309C16.668 4.18639 16.5143 4.25005 16.3541 4.25007H0.645671C0.485436 4.25007 0.331764 4.18642 0.21846 4.07312C0.105157 3.95981 0.0415039 3.80614 0.0415039 3.64591C0.0415039 3.48567 0.105157 3.332 0.21846 3.2187C0.331764 3.10539 0.485436 3.04174 0.645671 3.04174H3.6665L4.54089 1.29297C4.64123 1.09226 4.79548 0.923453 4.98636 0.805474C5.17723 0.687496 5.39719 0.625003 5.62159 0.625H11.3781C11.6025 0.624994 11.8225 0.687483 12.0133 0.805462C12.2042 0.923441 12.3585 1.09225 12.4588 1.29297L13.3332 3.04167L16.3541 3.04174C16.5143 3.04176 16.668 3.10542 16.7812 3.21872C16.8945 3.33202 16.9582 3.48568 16.9582 3.64591Z" fill="#707070"/>
</svg>
