<?xml version="1.0" encoding="UTF-8"?>
<svg width="48px" height="48px" viewBox="0 0 48 48" version="1.1" xmlns="http://www.w3.org/2000/svg" xmlns:xlink="http://www.w3.org/1999/xlink">
    <!-- Generator: Sketch 56.3 (81716) - https://sketch.com -->
    <title>Artboard</title>
    <desc>Created with Sketch.</desc>
    <g id="Artboard" stroke="none" stroke-width="1" fill="none" fill-rule="evenodd">
        <g id="list" transform="translate(4.000000, 9.000000)" fill="#FF1493" fill-rule="nonzero">
            <path d="M37.8670971,28.7822951 L16.9832584,28.7822951 C16.1225351,28.7822951 15.424918,27.9016393 15.424918,26.815082 C15.424918,25.7285246 16.1225351,24.8478689 16.9832584,24.8478689 L37.8665777,24.8478689 C38.727301,24.8478689 39.424918,25.7285246 39.424918,26.815082 C39.424918,27.9016393 38.7278204,28.7822951 37.8670971,28.7822951 Z" id="Path"></path>
            <path d="M37.3478235,16.4340984 L9.50270553,16.4340984 C8.35507444,16.4340984 7.4249184,15.5534426 7.4249184,14.4668852 C7.4249184,13.3803279 8.35507444,12.4996721 9.50270553,12.4996721 L37.3471309,12.4996721 C38.494762,12.4996721 39.4249184,13.3803279 39.4249184,14.4668852 C39.4256106,15.5534426 38.4954546,16.4340984 37.3478235,16.4340984 Z" id="Path"></path>
            <path d="M11.3728435,4.08590164 L1.94792546,4.08590164 C0.872021297,4.08590164 0,3.2052459 0,2.11868852 C0,1.03213115 0.872021297,0.15147541 1.94792546,0.15147541 L28.0520745,0.15147541 L37.4769926,0.15147541 C38.5528967,0.15147541 39.424918,1.03213115 39.424918,2.11868852 C39.424918,3.2052459 38.553546,4.08590164 37.4776419,4.08590164 L11.3728435,4.08590164 Z" id="Combined-Shape"></path>
            <circle id="Oval" cx="2.64196721" cy="14.4668852" r="2.64196721"></circle>
            <circle id="Oval" cx="2.64196721" cy="26.6629508" r="2.64196721"></circle>
            <circle id="Oval-Copy-8" cx="10.6419672" cy="26.6629508" r="2.64196721"></circle>
        </g>
    </g>
</svg>