<svg id="Layer_1" data-name="Layer 1" xmlns="http://www.w3.org/2000/svg" width="12.88" height="14.34" viewBox="0 0 12.88 14.34">
  <title>trash</title>
  <g>
    <rect x="5.88" y="4.36" width="1" height="7.79"/>
    <rect x="8.16" y="4.36" width="1" height="7.79"/>
    <rect x="3.6" y="4.36" width="1" height="7.79"/>
    <path d="M13.9,2.67H11s0-.07,0-.1A1.37,1.37,0,0,0,9.67,1.21H6.73A1.37,1.37,0,0,0,5.36,2.57s0,.07,0,.1H2.49a.74.74,0,0,0-.74.74v.67a.12.12,0,0,0,.12.12h.94a1,1,0,0,0,0,.19V14.52a1,1,0,0,0,1,1h8.78a1,1,0,0,0,1-1V4.39a1,1,0,0,0,0-.19h.88A.19.19,0,0,0,14.63,4V3.41A.74.74,0,0,0,13.9,2.67ZM12.61,14.52a0,0,0,0,1,0,0l-8.81,0,0-10.15,8.81,0Zm-6.25-12a.36.36,0,0,1,.36-.36H9.67a.36.36,0,0,1,.36.36.35.35,0,0,1,0,.1H6.38A.35.35,0,0,1,6.36,2.57Z" transform="translate(-1.76 -1.21)"/>
  </g>
</svg>
