<svg width="13" height="15" viewBox="0 0 13 15" fill="none" xmlns="http://www.w3.org/2000/svg">
<path d="M6.87999 4.36H5.87999V12.15H6.87999V4.36Z" fill="black"/>
<path d="M9.15999 4.36H8.15999V12.15H9.15999V4.36Z" fill="black"/>
<path d="M4.59999 4.36H3.59999V12.15H4.59999V4.36Z" fill="black"/>
<path d="M12.14 1.46H9.23999C9.23999 1.46 9.23999 1.39 9.23999 1.36C9.23755 1.00521 9.09757 0.665205 8.8495 0.411544C8.60144 0.157882 8.26464 0.0103506 7.90999 4.87034e-10H4.96999C4.60837 -9.63309e-06 4.26141 0.142956 4.00477 0.397722C3.74813 0.652488 3.60263 0.998389 3.59999 1.36C3.59999 1.36 3.59999 1.43 3.59999 1.46H0.72999C0.53373 1.46 0.345508 1.53796 0.206731 1.67674C0.0679543 1.81552 -0.0100098 2.00374 -0.0100098 2.2V2.87C-0.0100098 2.90183 0.00263306 2.93235 0.0251374 2.95485C0.0476418 2.97736 0.0781643 2.99 0.10999 2.99H1.04999C1.04396 3.05319 1.04396 3.11681 1.04999 3.18V13.31C1.04999 13.5752 1.15535 13.8296 1.34288 14.0171C1.53042 14.2046 1.78477 14.31 2.04999 14.31H10.83C11.0952 14.31 11.3496 14.2046 11.5371 14.0171C11.7246 13.8296 11.83 13.5752 11.83 13.31V3.18C11.836 3.11681 11.836 3.05319 11.83 2.99H12.71C12.7568 2.98262 12.7992 2.95801 12.8288 2.92101C12.8584 2.88401 12.8731 2.83728 12.87 2.79V2.2C12.87 2.00546 12.7934 1.81874 12.6568 1.68024C12.5202 1.54175 12.3345 1.46263 12.14 1.46ZM10.85 13.31H2.03999V3.16H10.85V13.31ZM4.59999 1.31C4.59999 1.21452 4.63792 1.12295 4.70543 1.05544C4.77295 0.987929 4.86451 0.95 4.95999 0.95H7.90999C8.00547 0.95 8.09704 0.987929 8.16455 1.05544C8.23206 1.12295 8.26999 1.21452 8.26999 1.31C8.27478 1.34316 8.27478 1.37684 8.26999 1.41H4.61999C4.61205 1.39387 4.60536 1.37716 4.59999 1.36V1.31Z" fill="black"/>
</svg>
