
<svg  width="12px" height="12px" viewBox="0 0 32 35" version="1.1">
    <g stroke="none" stroke-width="1"  >
        <g  id="Desktop-Copy-4" transform="translate(-491.000000, -502.000000)" >
            <g  fill="#FFFFFF" transform="translate(491.000000, 502.000000)">
                <path d="M0,0.271046512 L0,1.89922481 L3.55555556,1.89922481 C4.53333333,1.89922481 5.33333333,2.63178295 5.33333333,3.52713178 L5.33333333,31.744186 C5.33333333,32.6395349 4.53333333,33.372093 3.55555556,33.372093 L0.592592593,33.372093 L0.592592593,35 L21.3333333,35 C27.2296296,35 32,30.6317829 32,25.2325581 C32,21.1627907 29.2702222,17.6595349 25.3887407,16.1941473 C27.9368889,14.6476357 29.6296296,11.9651163 29.6296296,8.95321705 C29.6296296,4.15089147 25.3925926,0.271046512 20.1481481,0.271046512 L0,0.271046512 Z M11.8518519,1.89922481 L15.1111111,1.89922481 C19.2,1.89922481 22.5185185,4.9379845 22.5185185,8.68217054 C22.5185185,12.4263566 19.2,15.4651163 15.1111111,15.4651163 L11.8518519,15.4651163 L11.8518519,1.89922481 Z M11.8518519,17.0930233 L16.5925926,17.0930233 C21.5111111,17.0930233 25.4814815,20.7286822 25.4814815,25.2325581 C25.4814815,29.7364341 21.5111111,33.372093 16.5925926,33.372093 L11.8518519,33.372093 L11.8518519,17.0930233 Z" id="Shape"></path>
            </g>
        </g>
    </g>
</svg>
