
<svg width="12px" height="12px" viewBox="0 0 28 35" >
    <g fill="#FFFFFF"  stroke="none" stroke-width="1" >
        <g id="Desktop-Copy-4" transform="translate(-538.000000, -502.000000)" >
            <g id="noun_666261" transform="translate(538.000000, 502.000000)">
                <path d="M26.3079005,0 L12.4696773,0 C11.1959635,0 9.83826867,0.98 9.44169113,2.1875 C9.0451136,3.395 9.75895316,4.375 11.01867,4.375 L12.4696773,4.375 C13.7573879,4.375 14.8024863,5.355 14.8024863,6.5625 C14.8024863,6.768125 14.769827,6.97375 14.7138396,7.161875 L8.1166556,28.651875 C7.57077828,29.8025 6.38571129,30.625 4.95803216,30.625 L3.13377549,30.625 C1.86472737,30.625 0.507032505,31.605 0.110454968,32.8125 C-0.286122569,34.01125 0.418385761,35 1.6920995,35 L15.5303227,35 C16.7993708,35 18.1570657,34.01125 18.5536432,32.8125 C18.9548864,31.605 18.2410468,30.625 16.9766643,30.625 L15.5303227,30.625 C14.2426121,30.625 13.1975137,29.63625 13.1975137,28.42875 C13.1975137,28.21875 13.230173,28.021875 13.2908261,27.829375 C13.3032677,27.7827083 15.4463416,20.72875 19.7200478,6.6675 C20.1632815,5.341875 21.4743202,4.375 23.0419678,4.375 L24.8708901,4.375 C26.1446039,4.375 27.4929675,3.395 27.889545,2.1875 C28.2861226,0.98 27.5816142,0 26.3079005,0 Z" id="Shape"></path>
            </g>
        </g>
    </g>
</svg>
