
<svg width="12px" height="12px" viewBox="0 0 37 35" >
    <g id="Empty-Worksheet-&amp;-Components" stroke="none" stroke-width="1" >
        <g id="Desktop-Copy-4" transform="translate(-584.000000, -502.000000)" fill="#FFFFFF">
            <g id="noun_96223" transform="translate(584.000000, 502.000000)">
                <polygon id="ShapeTT" points="0 16.5503876 37 16.5503876 37 20.0775194 0 20.0775194"></polygon>
                <path d="M8.47374457,14.9224806 L21.5586158,14.9224806 L17.1016864,12.9117129 C14.6605866,11.8149307 13.0411959,10.7783378 12.2459162,9.79970474 C11.4218046,8.84782245 11.0109507,7.70199739 11.0109507,6.36668716 C11.0109507,5.29442661 11.5635615,4.31579354 12.6687839,3.43301759 C13.7740062,2.55247072 15.2276137,2.11108303 17.0272045,2.11108303 C19.3890161,2.11108303 21.3375713,2.74195589 22.8656614,4.00593012 C24.3961539,5.26990492 25.6479382,7.65518308 26.6258198,11.1595367 L27.8968254,11.1595367 L27.8968254,0 L26.6234173,0 C26.3158772,0.572912532 26.0443771,0.942965363 25.813722,1.10792826 C25.5830669,1.27512082 25.2611105,1.35983136 24.8502566,1.35983136 C24.4129726,1.35983136 23.5384054,1.18149278 22.2265542,0.822586538 C20.2467646,0.274195703 18.5649051,0 17.1785714,0 C14.0166744,0 11.4386233,0.907297647 9.44922312,2.71743419 C7.45742038,4.52979983 6.46031746,6.78355372 6.46031746,9.47869531 C6.46031746,11.5518815 7.03935771,13.26839 8.19503571,14.6282214 C8.27672636,14.7263082 8.37763828,14.8243938 8.47374457,14.9224806 Z" id="ShapeTT" ></path>
                <path d="M19.2539909,21.4341085 C20.9335527,22.3347851 22.161204,23.1239925 22.9224446,23.8061888 C24.174262,24.9253467 24.802588,26.3098032 24.802588,27.95287 C24.802588,29.3128036 24.2395113,30.47655 23.1157755,31.4418795 C21.9896227,32.4072091 20.5372243,32.8909885 18.753747,32.8909885 C16.2186955,32.8909885 13.9325572,32.0438169 11.8904996,30.3494738 C9.84844138,28.6573606 8.46370888,26.1425988 7.74113444,22.8029591 L6.46031746,22.8029591 L6.46031746,34.4983848 L7.74113444,34.4983848 C8.07704706,33.8786123 8.54104125,33.5687257 9.13795059,33.5687257 C9.67927714,33.5687257 10.3776849,33.6891135 11.230758,33.9276588 C14.0219726,34.6410664 16.5038583,35 18.6764146,35 C21.6996263,35 24.4328422,34.0881755 26.8760618,32.2645275 C29.3168642,30.4386498 30.5396825,28.0375874 30.5396825,25.0546522 C30.5396825,23.7638301 30.2400196,22.5577255 29.6503603,21.4341085 L19.2539909,21.4341085 Z" id="ShapeTT"></path>
            </g>
        </g>
    </g>
</svg>
