
<svg  width="12px" height="12px" viewBox="0 0 36 41">
    <g fill="#FFFFFF" stroke="none" stroke-width="1" fill="none" fill-rule="evenodd">
        <g  transform="translate(-441.000000, -503.000000)" >
            <g transform="translate(441.000000, 503.076923)">
                <path d="M23.8470015,0 L23.8470015,0.921328016 C25.2541481,0.921328016 26.3424707,1.11185375 27.1164386,1.49358567 C27.6132977,1.74194957 28.0222566,2.19104595 28.3492748,2.83815299 C28.676293,3.48526004 28.8371949,4.56445224 28.8371949,6.07572958 L28.8371949,19.8466575 C28.8371949,23.4319435 28.5109217,25.9475637 27.8479463,27.3935179 C27.1857158,28.8374308 26.1927425,29.9690176 24.864557,30.791 C23.5363714,31.6116216 21.9266076,32.0239737 20.0397349,32.0239737 C18.3927253,32.0239737 17.0310185,31.7007604 15.9471655,31.0522925 C14.867037,30.4058659 14.0930691,29.5927292 13.6215372,28.6122022 C13.1500052,27.6337164 12.9138668,25.6318353 12.9138668,22.6120024 L12.9138668,6.07572958 C12.9138668,4.15005876 13.0218796,2.94566394 13.2364155,2.46526691 C13.4472268,1.98350898 13.8077662,1.60517931 14.316544,1.33095834 C14.8215971,1.05809827 15.7527423,0.920647566 17.1055101,0.920647566 L18.0083485,0.920647566 L18.0083485,0 L0,0 L0,0.921328016 C1.47344419,0.904316789 2.48653019,1.03700435 3.03329866,1.31871026 C3.58379171,1.60109662 3.96816846,1.97942629 4.19164331,2.45165793 C4.41511816,2.92525047 4.52685559,4.13304754 4.52685559,6.07572958 L4.52685559,22.611322 C4.52685559,25.416133 4.99019345,27.6500472 5.91686917,29.3096624 C6.84428981,30.9685972 8.42872651,32.3308562 10.6753937,33.3937176 C12.3224034,34.1735123 14.6517562,34.5634096 17.6731362,34.5634096 C21.2934288,34.5634096 24.1486925,33.8244419 26.2389273,32.3485479 C28.3328867,30.8706126 29.6484087,29.2511438 30.1907076,27.4915026 C30.7285371,25.7325418 31.0011764,22.8692122 31.0011764,18.9001529 L31.0011764,6.07572958 C31.0011764,4.69782025 31.1129138,3.74383068 31.3319192,3.21171952 C31.6261611,2.44825569 32.097693,1.87531759 32.7472599,1.49358567 C33.4012963,1.11185375 34.2162346,0.921328016 35.1928197,0.921328016 L35.9124088,0.921328016 L35.9124088,0 L23.8470015,0 Z" id="Shape"></path>
                <rect id="Rectangle-path" x="0.603569895" y="39.2640333" width="33.4981292" height="1.65904366"></rect>
            </g>
        </g>
    </g>
</svg>
