<svg height='100px' width='100px'  fill="#008575" xmlns="http://www.w3.org/2000/svg" xmlns:xlink="http://www.w3.org/1999/xlink" version="1.1" x="0px" y="0px" viewBox="0 0 100 100" enable-background="new 0 0 100 100" xml:space="preserve"><path d="M10.5,96.6l25.6-17.3h45.8c6.1,0,11-4.9,11-11V14c0-6.1-4.9-11-11-11H18.1c-6.1,0-11,4.9-11,11v46v8.2v26.5  C7.1,96.6,9.1,97.6,10.5,96.6z M53.6,60.1c0,1.2-0.9,2.1-2.1,2.1h-5.4c-1.2,0-2.1-0.9-2.1-2.1v-3.5c0-1.2,0.9-2.1,2.1-2.1h5.4  c1.2,0,2.1,0.9,2.1,2.1V60.1z M39.5,23.1c2.6-2,6-3,10.2-3c4.5,0,8.1,1.1,10.7,3.4c2.6,2.3,3.9,5.4,3.9,9.2c0,2.4-0.7,4.6-2.1,6.6  c-1.4,2-3.2,3.6-5.4,4.7c-1.2,0.8-2,1.7-2.5,2.6C54,47.2,53.8,48,53.7,49c-0.1,0.8-0.7,1.3-1.5,1.3h-6.6c-0.9,0-1.6-0.7-1.5-1.6  c0.2-1.9,0.6-3.3,1.4-4.4c0.9-1.3,2.6-2.9,5.1-4.6c1.3-0.8,2.3-1.8,3-3c0.7-1.2,1.1-2.5,1.1-4.1c0-1.6-0.4-2.9-1.3-3.8  c-0.9-1-2.1-1.4-3.7-1.4c-1.3,0-2.3,0.4-3.2,1.2c-0.5,0.5-0.9,1.1-1.1,1.9c-0.3,1-1.2,1.6-2.2,1.5L37.1,32c-0.8,0-1.4-0.7-1.3-1.4  C36,27.3,37.2,24.8,39.5,23.1z"></path></svg>