
<svg width="12px" height="15px" viewBox="0 0 57 57" version="1.1" xmlns="http://www.w3.org/2000/svg" xmlns:xlink="http://www.w3.org/1999/xlink">
    <g stroke="none" stroke-width="1" fill-rule="evenodd">
        <g id="noun_1217823_cc" fill-rule="nonzero">
            <path  fill="#000000" d="M1.29545455,55.7045455 C2.09265734,56.5017483 3.08916084,56.9003497 4.08566434,56.9003497 C5.08216783,56.9003497 6.07867133,56.5017483 6.87587413,55.7045455 L28.5,34.1800699 L50.1241259,55.8041958 C50.9213287,56.6013986 51.9178322,57 52.9143357,57 C53.9108392,57 54.9073427,56.6013986 55.7045455,55.8041958 C57.298951,54.2097902 57.298951,51.7185315 55.7045455,50.1241259 L34.1800699,28.5 L55.8041958,6.87587413 C57.3986014,5.28146853 57.3986014,2.79020979 55.8041958,1.1958042 C54.2097902,-0.398601399 51.7185315,-0.398601399 50.1241259,1.1958042 L28.5,22.8199301 L6.87587413,1.29545455 C5.28146853,-0.298951049 2.79020979,-0.298951049 1.1958042,1.29545455 C-0.398601399,2.88986014 -0.398601399,5.38111888 1.1958042,6.97552448 L22.8199301,28.5 L1.29545455,50.1241259 C-0.298951049,51.6188811 -0.298951049,54.2097902 1.29545455,55.7045455 Z" id="ShapeCNTRL"></path>
        </g>
    </g>
</svg>
