<svg width="15px" height="15px" viewBox="0 0 64 60"  xmlns="http://www.w3.org/2000/svg" xmlns:xlink="http://www.w3.org/1999/xlink" version="1.1" xml:space="preserve">
  <title>noun_1528695</title>
  <desc>Created with Sketch.</desc>
  <defs></defs>
  <g id="Page-1" stroke="none" stroke-width="1" fill="none" fill-rule="evenodd">
      <g id="noun_1528695" fill="#000000" fill-rule="nonzero">
          <path d="M9.1,59.7 L46.9,59.7 C49.2869484,59.7 51.5761336,58.7517884 53.263961,57.063961 C54.9517884,55.3761336 55.9,53.0869484 55.9,50.7 L55.9,17.3 C55.9,12.3294373 51.8705627,8.3 46.9,8.3 L9.1,8.3 C4.12943725,8.3 0.1,12.3294373 0.1,17.3 L0.1,50.7 C0.1,55.6705627 4.12943725,59.7 9.1,59.7 Z M5.1,19.3548523 C5.1,16.0108497 7.81084972,13.3 11.1548523,13.3 L43.8510549,13.3 C47.1950575,13.3 49.9059072,16.0108497 49.9059072,19.3548523 L49.9059072,48.2451477 C49.9059072,51.5891503 47.1950575,54.3 43.8510549,54.3 L11.1548523,54.3 C7.81084972,54.3 5.1,51.5891503 5.1,48.2451477 L5.1,19.3548523 Z" id="ShapeCNTRL"></path>
          <path d="M61.9,52 C62.1739149,52.0325803 63.9325803,51.2739149 63.9,51 L63.9,13.3 C63.9,5.6650328 59.2329162,0.76223521 50.9,0.3 L8.7,0.3 C8.16816644,0.346503707 7.74650371,1.76816644 7.7,2.3 C7.7,2.85228475 8.14771525,4.3 8.7,4.3 L50.9,4.3 C55.8705627,4.3 59.9,8.32943725 59.9,13.3 L59.9,51 C59.9,51.5522847 60.3477153,52 61.9,52 Z" id="ShapeCNTRL"></path>
      </g>
  </g>
</svg>
