<svg width="239" height="69" viewBox="0 0 239 69" fill="none" xmlns="http://www.w3.org/2000/svg">
<path d="M94.9658 3.04688V9.81445C94.9613 10.7533 94.665 11.5212 94.0771 12.1182C93.4938 12.7152 92.7008 13.0501 91.6982 13.123L91.3496 13.1367C90.2604 13.1367 89.3923 12.8428 88.7451 12.2549C88.098 11.667 87.7699 10.8581 87.7607 9.82812V3.04688H89.0596V9.78711C89.0596 10.5072 89.2578 11.0677 89.6543 11.4688C90.0508 11.8652 90.6159 12.0635 91.3496 12.0635C92.0924 12.0635 92.6598 11.8652 93.0518 11.4688C93.4482 11.0723 93.6465 10.514 93.6465 9.79395V3.04688H94.9658ZM98.3496 9.10352V13H97.0371V3.04688H100.708C101.797 3.04688 102.649 3.32487 103.265 3.88086C103.884 4.43685 104.194 5.17285 104.194 6.08887C104.194 7.05501 103.891 7.80013 103.285 8.32422C102.684 8.84375 101.82 9.10352 100.694 9.10352H98.3496ZM98.3496 8.03027H100.708C101.41 8.03027 101.948 7.86621 102.321 7.53809C102.695 7.2054 102.882 6.72689 102.882 6.10254C102.882 5.51009 102.695 5.03613 102.321 4.68066C101.948 4.3252 101.435 4.14062 100.783 4.12695H98.3496V8.03027ZM107.188 11.9268H111.905V13H105.869V3.04688H107.188V11.9268ZM120.607 8.34473C120.607 9.31999 120.443 10.1722 120.115 10.9014C119.787 11.626 119.322 12.1797 118.721 12.5625C118.119 12.9453 117.417 13.1367 116.615 13.1367C115.831 13.1367 115.136 12.9453 114.53 12.5625C113.924 12.1751 113.452 11.626 113.115 10.915C112.783 10.1995 112.612 9.3724 112.603 8.43359V7.71582C112.603 6.75879 112.769 5.91341 113.102 5.17969C113.434 4.44596 113.904 3.88542 114.51 3.49805C115.12 3.10612 115.818 2.91016 116.602 2.91016C117.399 2.91016 118.101 3.10384 118.707 3.49121C119.318 3.87402 119.787 4.43229 120.115 5.16602C120.443 5.89518 120.607 6.74512 120.607 7.71582V8.34473ZM119.302 7.70215C119.302 6.52181 119.065 5.61719 118.591 4.98828C118.117 4.35482 117.454 4.03809 116.602 4.03809C115.772 4.03809 115.118 4.35482 114.64 4.98828C114.166 5.61719 113.922 6.49219 113.908 7.61328V8.34473C113.908 9.48861 114.147 10.3887 114.626 11.0449C115.109 11.6966 115.772 12.0225 116.615 12.0225C117.463 12.0225 118.119 11.7148 118.584 11.0996C119.049 10.4798 119.288 9.59342 119.302 8.44043V7.70215ZM127.922 10.4023H123.752L122.815 13H121.462L125.263 3.04688H126.411L130.219 13H128.872L127.922 10.4023ZM124.148 9.32227H127.532L125.837 4.66699L124.148 9.32227ZM131.559 13V3.04688H134.368C135.234 3.04688 136 3.23828 136.665 3.62109C137.33 4.00391 137.843 4.5485 138.203 5.25488C138.568 5.96126 138.752 6.77246 138.757 7.68848V8.32422C138.757 9.26302 138.575 10.0856 138.21 10.792C137.85 11.4984 137.333 12.0407 136.658 12.4189C135.988 12.7972 135.207 12.9909 134.313 13H131.559ZM132.871 4.12695V11.9268H134.252C135.264 11.9268 136.05 11.6123 136.61 10.9834C137.175 10.3545 137.458 9.45898 137.458 8.29688V7.71582C137.458 6.58561 137.191 5.70833 136.658 5.08398C136.13 4.45508 135.378 4.13607 134.402 4.12695H132.871ZM149.715 10.4023H145.545L144.608 13H143.255L147.056 3.04688H148.204L152.012 13H150.665L149.715 10.4023ZM145.941 9.32227H149.325L147.63 4.66699L145.941 9.32227ZM67.1162 25.1035V29H65.8037V19.0469H69.4746C70.5638 19.0469 71.416 19.3249 72.0312 19.8809C72.651 20.4368 72.9609 21.1729 72.9609 22.0889C72.9609 23.055 72.6579 23.8001 72.0518 24.3242C71.4502 24.8438 70.5866 25.1035 69.4609 25.1035H67.1162ZM67.1162 24.0303H69.4746C70.1764 24.0303 70.7142 23.8662 71.0879 23.5381C71.4616 23.2054 71.6484 22.7269 71.6484 22.1025C71.6484 21.5101 71.4616 21.0361 71.0879 20.6807C70.7142 20.3252 70.2015 20.1406 69.5498 20.127H67.1162V24.0303ZM78.2861 24.9736H75.9482V29H74.6289V19.0469H77.9238C79.0449 19.0469 79.9062 19.3021 80.5078 19.8125C81.1139 20.3229 81.417 21.0658 81.417 22.041C81.417 22.6608 81.2484 23.2008 80.9111 23.6611C80.5785 24.1214 80.1136 24.4655 79.5166 24.6934L81.8545 28.918V29H80.4463L78.2861 24.9736ZM75.9482 23.9004H77.9648C78.6165 23.9004 79.1338 23.7318 79.5166 23.3945C79.904 23.0573 80.0977 22.6061 80.0977 22.041C80.0977 21.4258 79.9131 20.9541 79.5439 20.626C79.1794 20.2979 78.6507 20.1315 77.958 20.127H75.9482V23.9004ZM90.9189 24.3447C90.9189 25.32 90.7549 26.1722 90.4268 26.9014C90.0986 27.626 89.6338 28.1797 89.0322 28.5625C88.4307 28.9453 87.7288 29.1367 86.9268 29.1367C86.1429 29.1367 85.4479 28.9453 84.8418 28.5625C84.2357 28.1751 83.764 27.626 83.4268 26.915C83.0941 26.1995 82.9232 25.3724 82.9141 24.4336V23.7158C82.9141 22.7588 83.0804 21.9134 83.4131 21.1797C83.7458 20.446 84.2152 19.8854 84.8213 19.498C85.432 19.1061 86.1292 18.9102 86.9131 18.9102C87.7106 18.9102 88.4124 19.1038 89.0186 19.4912C89.6292 19.874 90.0986 20.4323 90.4268 21.166C90.7549 21.8952 90.9189 22.7451 90.9189 23.7158V24.3447ZM89.6133 23.7021C89.6133 22.5218 89.3763 21.6172 88.9023 20.9883C88.4284 20.3548 87.7653 20.0381 86.9131 20.0381C86.0837 20.0381 85.4297 20.3548 84.9512 20.9883C84.4772 21.6172 84.2334 22.4922 84.2197 23.6133V24.3447C84.2197 25.4886 84.459 26.3887 84.9375 27.0449C85.4206 27.6966 86.0837 28.0225 86.9268 28.0225C87.7744 28.0225 88.4307 27.7148 88.8955 27.0996C89.3604 26.4798 89.5996 25.5934 89.6133 24.4404V23.7021ZM98.377 24.6045H94.2002V29H92.8877V19.0469H99.0537V20.127H94.2002V23.5312H98.377V24.6045ZM102.034 29H100.722V19.0469H102.034V29ZM105.76 27.9268H110.477V29H104.44V19.0469H105.76V27.9268ZM117.6 24.3994H113.286V27.9268H118.297V29H111.974V19.0469H118.229V20.127H113.286V23.3262H117.6V24.3994ZM124.716 25.1035V29H123.403V19.0469H127.074C128.163 19.0469 129.016 19.3249 129.631 19.8809C130.251 20.4368 130.561 21.1729 130.561 22.0889C130.561 23.055 130.257 23.8001 129.651 24.3242C129.05 24.8438 128.186 25.1035 127.061 25.1035H124.716ZM124.716 24.0303H127.074C127.776 24.0303 128.314 23.8662 128.688 23.5381C129.061 23.2054 129.248 22.7269 129.248 22.1025C129.248 21.5101 129.061 21.0361 128.688 20.6807C128.314 20.3252 127.801 20.1406 127.149 20.127H124.716V24.0303ZM133.644 29H132.331V19.0469H133.644V29ZM143.371 25.8418C143.248 26.8945 142.858 27.708 142.202 28.2822C141.55 28.8519 140.682 29.1367 139.598 29.1367C138.422 29.1367 137.479 28.7152 136.768 27.8721C136.061 27.029 135.708 25.901 135.708 24.4883V23.5312C135.708 22.6061 135.872 21.7926 136.2 21.0908C136.533 20.389 137.002 19.8512 137.608 19.4775C138.215 19.0993 138.916 18.9102 139.714 18.9102C140.771 18.9102 141.619 19.2064 142.257 19.7988C142.895 20.3867 143.266 21.2025 143.371 22.2461H142.052C141.938 21.4531 141.689 20.8789 141.307 20.5234C140.928 20.168 140.397 19.9902 139.714 19.9902C138.875 19.9902 138.217 20.3001 137.738 20.9199C137.264 21.5397 137.027 22.4215 137.027 23.5654V24.5293C137.027 25.6094 137.253 26.4684 137.704 27.1064C138.155 27.7445 138.786 28.0635 139.598 28.0635C140.327 28.0635 140.885 27.8994 141.272 27.5713C141.664 27.2386 141.924 26.6621 142.052 25.8418H143.371ZM151.841 20.127H148.642V29H147.336V20.127H144.144V19.0469H151.841V20.127ZM160.324 19.0469V25.8145C160.32 26.7533 160.023 27.5212 159.436 28.1182C158.852 28.7152 158.059 29.0501 157.057 29.123L156.708 29.1367C155.619 29.1367 154.751 28.8428 154.104 28.2549C153.456 27.667 153.128 26.8581 153.119 25.8281V19.0469H154.418V25.7871C154.418 26.5072 154.616 27.0677 155.013 27.4688C155.409 27.8652 155.974 28.0635 156.708 28.0635C157.451 28.0635 158.018 27.8652 158.41 27.4688C158.807 27.0723 159.005 26.514 159.005 25.7939V19.0469H160.324ZM166.046 24.9736H163.708V29H162.389V19.0469H165.684C166.805 19.0469 167.666 19.3021 168.268 19.8125C168.874 20.3229 169.177 21.0658 169.177 22.041C169.177 22.6608 169.008 23.2008 168.671 23.6611C168.338 24.1214 167.873 24.4655 167.276 24.6934L169.614 28.918V29H168.206L166.046 24.9736ZM163.708 23.9004H165.725C166.376 23.9004 166.894 23.7318 167.276 23.3945C167.664 23.0573 167.857 22.6061 167.857 22.041C167.857 21.4258 167.673 20.9541 167.304 20.626C166.939 20.2979 166.41 20.1315 165.718 20.127H163.708V23.9004ZM176.648 24.3994H172.335V27.9268H177.346V29H171.022V19.0469H177.277V20.127H172.335V23.3262H176.648V24.3994Z" transform="translate(0 36)" fill="#00151E"/>
<path d="M38.1235 12.1765C38.0501 12.1765 37.9766 12.1765 37.9766 12.1765C37.389 9.80882 35.2588 7.91471 32.6144 7.50882C31.3656 3.17941 27.0317 0 21.9633 0C17.1886 0 13.0751 2.84118 11.606 6.76471C8.52087 6.83235 5.94992 8.79412 5.28881 11.5C5.21536 11.5 5.1419 11.5 5.1419 11.5C2.27713 11.5 0 13.5971 0 16.2353V17.25C0 20.4294 2.79132 23 6.24374 23H17.5559V17.5882H13.0017L21.9633 7.30588L30.9249 17.5882H26.3706V23H38.1235C41.3556 23 44 20.5647 44 17.5882C44 14.6118 41.3556 12.1765 38.1235 12.1765Z" transform="translate(96)" fill="#00151E"/>
<path d="M12 7.14708L6 0L0 7.14708H3V16.4804H9V7.14708H12Z" transform="translate(112 9.51953)" fill="#00151E"/>
</svg>
