
<svg width="25px" height="15px" viewBox="0 0 28 15" version="1.1" xmlns="http://www.w3.org/2000/svg" xmlns:xlink="http://www.w3.org/1999/xlink">
    <!-- Generator: Sketch 48.2 (47327) - http://www.bohemiancoding.com/sketch -->
    <desc>Created with Sketch.</desc>
    <defs></defs>
    <g id="Page-1" stroke="none" stroke-width="1" fill="none" fill-rule="evenodd">
        <g id="preview-on" transform="translate(-962.000000, -42.000000)" fill="#FFFFFF">
            <g id="Group-15" transform="translate(961.000000, 21.000000)">
                <g id="Group" transform="translate(1.000000, 21.000000)">
                    <path d="M0,7.95586541 C2.80019498,2.81526612 7.28332291,0.165556276 13.4493838,0.00673588528 C19.6154447,-0.152084506 24.4286036,2.49762534 27.8888607,7.95586541 C24.9300706,12.6810536 20.6084664,15.2663342 14.924048,15.7117071 C9.23962968,16.1570801 4.26494701,13.5717995 0,7.95586541 Z M14.4788428,12 C16.975809,12 19,9.98528137 19,7.5 C19,5.01471863 16.975809,3 14.4788428,3 C11.9818767,3 9.95768564,5.01471863 9.95768564,7.5 C9.95768564,9.98528137 11.9818767,12 14.4788428,12 Z" id="Combined-Shape"></path>
                    <circle id="Oval-3" cx="14.5" cy="7.5" r="3.5"></circle>
                </g>
            </g>
        </g>
    </g>
</svg>
