
<svg width="28px" height="15px" viewBox="0 0 28 17" version="1.1" xmlns="http://www.w3.org/2000/svg" xmlns:xlink="http://www.w3.org/1999/xlink">
    <!-- Generator: Sketch 48.2 (47327) - http://www.bohemiancoding.com/sketch -->
    <desc>Created with Sketch.</desc>
    <defs>
        <path d="M5.95795214,14.4345728 C4.54736111,13.4830466 3.56856199,12.7589017 3.02155479,12.262138 C1.65345779,11.0197029 0.709488619,9.668711 0.624477532,9.57831479 C0.488481381,9.4337038 0.488481381,9.16201326 0.624477532,8.76324315 C1.93548594,6.47006797 4.30750388,4.47364265 7.74053134,2.77396719 C11.1735588,1.07429174 14.7825626,0.761958452 18.5675427,1.83696734 L19.7821787,0.699508184 C20.2153703,0.160299075 20.6362193,0.092366446 21.0447255,0.495710298 C21.4532317,0.89905415 21.3655187,1.34613983 20.7815866,1.83696734 L8.22455972,14.4345728 C6.71955477,15.9802288 5.78475081,16.5884337 5.42014784,16.2591878 C5.05554487,15.9299418 4.99021585,15.5914567 5.22416078,15.2437324 L5.95795214,14.4345728 Z M9.37483466,11.2509499 L10.4228688,10.2061844 C9.96384872,8.72473108 10.2708006,7.37717371 11.3437244,6.16351228 C12.4166483,4.94985086 13.8064995,4.63457889 15.5132779,5.21769638 L16.6742276,3.80120112 C13.6968857,3.08373183 11.5198973,3.55589692 10.1432625,5.21769638 C8.7666276,6.87949584 8.510485,8.89058036 9.37483466,11.2509499 Z" id="path-1"></path>
        <path d="M9.63840322,15.7016036 L11.4970518,13.7205308 C14.6582897,14.5485779 16.9338342,14.1584251 18.3236854,12.5500725 C19.7135365,10.94172 19.9579887,8.78443957 19.0570418,6.07823136 L21.7783054,3.49692355 C24.3493262,4.73171871 26.189113,6.35683763 27.2976659,8.37228029 C27.6980329,9.10018123 27.7961497,9.39086663 27.0948004,10.1030967 C25.2816152,11.9444117 23.3399779,13.5642466 21.2698885,14.9626014 C18.5341638,16.3686965 15.8339976,16.9258454 13.1693898,16.6340479 C10.5047821,16.3422505 9.32778654,16.0314357 9.63840322,15.7016036 Z" id="path-2"></path>
        <path d="M12.6287721,12.6399988 L17.9175274,7.32273937 C18.4306,9.18206341 18.1220508,10.656134 16.99188,11.7449512 C15.8617091,12.8337684 14.4073398,13.1321176 12.6287721,12.6399988 Z" id="path-3"></path>
    </defs>
    <g id="Page-1" stroke="none" stroke-width="1" fill="none" fill-rule="evenodd">
        <g id="Toolbar-hover" transform="translate(-924.000000, -36.000000)">
            <g id="Group-14" transform="translate(924.000000, 18.000000)">
                <g id="Group-15" transform="translate(0.000000, 18.000000)">
                    <g id="Combined-Shape">
                        <use fill="#D8D8D8" xlink:href="#path-1"></use>
                        <use id="previewOff" fill="#FFFFFF" xlink:href="#path-1"></use>
                    </g>
                    <g id="Path-5">
                        <use fill="#D8D8D8" xlink:href="#path-2"></use>
                        <use id="previewOff" fill="#FFFFFF" xlink:href="#path-2"></use>
                    </g>
                    <g id="Path-6">
                        <use fill="#D8D8D8" xlink:href="#path-3"></use>
                        <use id="previewOff" fill="#FFFFFF" xlink:href="#path-3"></use>
                    </g>
                </g>
            </g>
        </g>
    </g>
</svg>
