<?xml version="1.0" encoding="UTF-8" standalone="no"?>
<svg className='insertToolbar__icon' width="18px" height="16px" viewBox="0 0 16 17" version="1.1" >
    <g strokeWidth="1" fill="#FFFFFF" fillRule="evenodd">
        <path id="Shape" d="M0,4.04645536 L0,0 L13.9772359,0 L13.9772359,4.04645536 L12.915891,4.04645536 C13.115877,2.81346441 12.8883919,2.04209731 12.2334355,1.73235404 C10.5403701,0.931666166 8.87934339,1.43977424 8.87934339,1.44193215 C8.87934339,4.61161368 8.87934339,9.03300018 8.87934339,14.7060916 C8.95680425,15.6533212 9.69926019,16.1269359 11.1067112,16.1269359 C11.1067112,16.1269359 11.1067112,16.4179573 11.1067112,17 L2.92855622,17 L2.92855622,16.1269359 C4.28070183,16.1269359 4.95677464,15.7036888 4.95677464,14.8571945 C4.95677464,14.0107003 4.95677464,9.53894617 4.95677464,1.44193215 C3.60498302,1.21210438 2.58284964,1.36557038 1.8903745,1.90233014 C0.994928392,2.59641923 1.10095141,4.04645536 1.05590481,4.04645536 C1.02587375,4.04645536 0.673905479,4.04645536 0,4.04645536 Z"></path>
    </g>
</svg>
