
<svg width="18px" height="36px" viewBox="0 0 58 76" version="1.1" xmlns="http://www.w3.org/2000/svg" xmlns:xlink="http://www.w3.org/1999/xlink">
    <!-- Generator: Sketch 48.2 (47327) - http://www.bohemiancoding.com/sketch -->
    <desc>Created with Sketch.</desc>
    <defs></defs>
    <g id="Empty-Worksheet-&amp;-Components" stroke="none" stroke-width="1" fill="none" fill-rule="evenodd">
        <g className="pages__delete" id="noun_1244275"  fill="#B1B1B1" fill-rule="nonzero">
            <path d="M42.1151663,10.0297957 C42.2491236,10.5656247 42.7998922,11 43.3503319,11 L54,11 C55.9329966,11 57.5,12.5670034 57.5,14.5 C57.5,16.0961251 56.431581,17.4427076 54.9709104,17.8635801 L53.1431343,68.1274212 C52.9942947,72.2205125 49.5935926,75.5 45.4940966,75.5 L12.5059034,75.5 C8.412371,75.5 5.005437,72.2131333 4.8568657,68.1274212 L3.0290896,17.8635801 C1.568419,17.4427076 0.5,16.0961251 0.5,14.5 C0.5,12.5670034 2.0670034,11 4,11 L14.6496681,11 C15.1978739,11 15.7521801,10.5604101 15.8848337,10.0297957 L16.6337944,7.0339527 C17.559233,3.3321983 21.1820122,0.5 24.9962027,0.5 L33.0037973,0.5 C36.8183825,0.5 40.4403133,3.3303835 41.3662056,7.0339527 L42.1151663,10.0297957 Z M26.5,27 L26.5,61 C26.5,62.3807119 27.6192881,63.5 29,63.5 C30.3807119,63.5 31.5,62.3807119 31.5,61 L31.5,27 C31.5,25.6192881 30.3807119,24.5 29,24.5 C27.6192881,24.5 26.5,25.6192881 26.5,27 Z M15.0010806,27.0734976 L16.0010806,61.0734976 C16.0416722,62.4536127 17.1933826,63.539511 18.5734976,63.4989194 C19.9536127,63.4583278 21.039511,62.3066174 20.9989194,60.9265024 L19.9989194,26.9265024 C19.9583278,25.5463873 18.8066174,24.460489 17.4265024,24.5010806 C16.0463873,24.5416722 14.960489,25.6933826 15.0010806,27.0734976 Z M38.0010806,26.9265024 L37.0010806,60.9265024 C36.960489,62.3066174 38.0463873,63.4583278 39.4265024,63.4989194 C40.8066174,63.539511 41.9583278,62.4536127 41.9989194,61.0734976 L42.9989194,27.0734976 C43.039511,25.6933826 41.9536127,24.5416722 40.5734976,24.5010806 C39.1933826,24.460489 38.0416722,25.5463873 38.0010806,26.9265024 Z M23.3545019,11 L34.6454981,11 C34.9185743,11 35.0884395,10.7846276 35.0220207,10.5189524 L34.5752081,8.7317021 C34.4280623,8.143119 33.6050882,7.5 33.0037973,7.5 L24.9962027,7.5 C24.3958769,7.5 23.5716219,8.1443819 23.4247919,8.7317021 L22.9779793,10.5189524 C22.91005,10.7906698 23.0801354,11 23.3545019,11 Z" id="Shape"></path>
        </g>
    </g>
</svg>
