<?xml version="1.0" encoding="UTF-8"?>
<svg width="54px" height="36px" viewBox="0 0 44 26" version="1.1" xmlns="http://www.w3.org/2000/svg" xmlns:xlink="http://www.w3.org/1999/xlink">
    <!-- Generator: Sketch 48.2 (47327) - http://www.bohemiancoding.com/sketch -->
    <title>noun_1508382</title>
    <desc>Created with Sketch.</desc>
    <defs></defs>
    <g id="Logged-IN-Preview-OFF" stroke="none" stroke-width="1" fill="none" fill-rule="evenodd" transform="translate(-225.000000, -177.000000)">
        <g id="Group-17" transform="translate(136.000000, 124.000000)" fill="#9B9B9B" fill-rule="nonzero">
            <g id="noun_1508382" transform="translate(89.000000, 53.000000)">
                <path d="M38.1235392,12.1764706 C38.0500835,12.1764706 37.9766277,12.1764706 37.9766277,12.1764706 C37.3889816,9.80882353 35.2587646,7.91470588 32.6143573,7.50882353 C31.3656093,3.17941176 27.0317195,0 21.9632721,0 C17.1886477,0 13.0751252,2.84117647 11.60601,6.76470588 C8.52086811,6.83235294 5.94991653,8.79411765 5.28881469,11.5 C5.21535893,11.5 5.14190317,11.5 5.14190317,11.5 C2.27712855,11.5 0,13.5970588 0,16.2352941 L0,17.25 C0,20.4294118 2.79131886,23 6.24373957,23 L17.5559265,23 L17.5559265,17.5882353 L13.0016694,17.5882353 L21.9632721,7.30588235 L30.9248748,17.5882353 L26.3706177,17.5882353 L26.3706177,23 L38.1235392,23 C41.3555927,23 44,20.5647059 44,17.5882353 C44,14.6117647 41.3555927,12.1764706 38.1235392,12.1764706 Z" id="grayShape"></path>
                <polygon id="grayShape" points="28 16.6666667 22 9.51958405 16 16.6666667 19 16.6666667 19 26 25 26 25 16.6666667"></polygon>
            </g>
        </g>
    </g>
</svg>
